<?xml version="1.0" standalone="no"?>
<!DOCTYPE svg PUBLIC "-//W3C//DTD SVG 20010904//EN"
 "http://www.w3.org/TR/2001/REC-SVG-20010904/DTD/svg10.dtd">
<svg version="1.0" xmlns="http://www.w3.org/2000/svg"
 width="7462.000000pt" height="4147.000000pt" viewBox="0 0 7462.000000 4147.000000"
 preserveAspectRatio="xMidYMid meet">
<metadata>
Created by potrace 1.16, written by Peter Selinger 2001-2019
</metadata>
<g transform="translate(0.000000,4147.000000) scale(0.100000,-0.100000)"
fill="#000000" stroke="none">
<path d="M37185 38710 c-1801 -56 -3519 -368 -5255 -955 -2242 -759 -4413
-1991 -6266 -3556 -723 -610 -1453 -1325 -2075 -2029 -1605 -1819 -2850 -3906
-3653 -6128 -578 -1600 -925 -3239 -1040 -4917 -54 -780 -54 -1687 0 -2485 18
-280 58 -716 87 -962 l23 -188 -8586 -2 -8585 -3 -3 -727 -2 -728 35475 0
35475 0 0 730 0 730 -8226 0 -8226 0 6 27 c10 49 54 460 75 693 52 586 71
1027 71 1690 0 524 -8 810 -35 1230 -228 3509 -1421 6852 -3468 9715 -1983
2772 -4709 4975 -7832 6327 -2110 915 -4349 1427 -6675 1528 -332 14 -988 19
-1285 10z m940 -3380 c2625 -84 5078 -786 7325 -2095 1614 -941 3089 -2215
4275 -3695 1539 -1921 2599 -4190 3079 -6590 343 -1720 392 -3497 146 -5245
-17 -115 -30 -211 -30 -212 0 -2 -6862 -3 -15250 -3 l-15249 0 -6 33 c-16 94
-57 399 -79 592 -134 1174 -137 2291 -10 3420 247 2194 1001 4334 2212 6275
1194 1914 2841 3612 4736 4884 2703 1814 5791 2734 8851 2636z"/>
<path d="M37560 34555 l0 -255 130 0 130 0 0 255 0 255 -130 0 -130 0 0 -255z"/>
<path d="M39490 34618 c0 -7 -14 -110 -30 -228 -16 -118 -28 -215 -27 -216 1
-1 30 -5 64 -9 l62 -7 5 34 c24 140 56 412 49 418 -4 4 -34 11 -65 15 -45 5
-58 3 -58 -7z"/>
<path d="M35813 34601 c-24 -4 -45 -10 -48 -13 -5 -5 38 -372 51 -427 5 -23 7
-23 67 -16 34 3 63 7 63 8 1 1 -11 97 -27 212 -16 116 -29 218 -29 228 0 18
-8 19 -77 8z"/>
<path d="M41445 34297 c-13 -34 -125 -432 -125 -441 0 -11 111 -49 118 -41 7
7 132 440 129 449 -5 15 -118 46 -122 33z"/>
<path d="M34171 34264 c-24 -7 -46 -16 -48 -18 -6 -6 116 -438 127 -449 8 -9
120 20 120 31 0 4 -28 107 -62 229 -47 166 -67 223 -78 222 -8 -1 -35 -7 -59
-15z"/>
<path d="M42967 33748 c-29 -69 -146 -374 -149 -386 -2 -8 21 -23 55 -37 l58
-24 14 32 c40 96 156 399 153 401 -2 2 -23 11 -48 20 -25 10 -50 20 -57 23 -7
3 -18 -10 -26 -29z"/>
<path d="M32645 33739 c-27 -12 -52 -22 -54 -24 -2 -3 76 -211 146 -387 18
-44 23 -45 90 -17 l50 20 -82 212 c-46 116 -87 212 -91 214 -5 1 -31 -7 -59
-18z"/>
<path d="M36130 33425 l0 -65 129 0 129 0 11 -32 c5 -18 98 -316 206 -661
l196 -629 -229 -541 -229 -542 -107 -3 -106 -3 0 -69 0 -70 1420 0 1420 0 0
70 0 70 -85 0 -85 0 0 1205 0 1205 85 0 85 0 0 65 0 65 -1420 0 -1420 0 0 -65z
m1190 -157 c-182 -436 -228 -539 -233 -522 -3 11 -47 150 -96 310 -50 161 -91
295 -91 298 0 3 103 6 229 6 l230 0 -39 -92z m350 -1114 c0 -928 -3 -1205 -12
-1202 -6 2 -116 339 -244 748 l-232 744 180 425 c99 234 186 441 193 459 13
30 17 32 64 32 l51 0 0 -1206z m628 -1 l2 -1203 -60 0 -60 0 0 1205 0 1206 58
-3 57 -3 3 -1202z m-1281 -805 c67 -216 121 -394 119 -395 -2 -2 -134 -2 -293
-1 l-290 3 165 393 c92 215 169 392 172 392 3 0 60 -177 127 -392z"/>
<path d="M44399 32948 c-50 -95 -103 -192 -116 -214 l-24 -42 57 -32 c31 -17
58 -29 61 -26 17 17 223 412 219 420 -2 6 -27 23 -54 39 l-50 27 -93 -172z"/>
<path d="M31135 33072 c-27 -16 -49 -33 -48 -38 2 -10 211 -404 219 -413 5 -6
104 40 110 51 6 9 -214 428 -224 428 -4 0 -29 -13 -57 -28z"/>
<path d="M45652 32134 c-73 -106 -134 -199 -137 -206 -6 -17 193 -154 206
-141 5 5 70 97 143 204 l134 194 -82 57 c-44 31 -92 63 -106 71 l-25 15 -133
-194z"/>
<path d="M29800 32253 c-52 -35 -99 -68 -104 -73 -13 -13 264 -412 281 -405
27 10 193 128 193 137 0 7 -251 381 -269 400 -3 3 -49 -23 -101 -59z"/>
<path d="M30378 31372 c-543 -323 -987 -591 -987 -597 -1 -5 14 -33 32 -62
l32 -52 105 64 c58 36 110 65 116 65 6 0 240 -205 520 -456 280 -251 510 -457
511 -458 1 -1 36 -251 78 -556 41 -305 78 -569 81 -586 5 -30 3 -33 -85 -85
-50 -29 -91 -57 -91 -61 0 -21 64 -109 76 -104 10 4 1617 957 1926 1143 64 38
64 32 12 115 l-24 37 -109 -64 c-60 -36 -113 -65 -118 -65 -8 0 -1229 2047
-1227 2058 1 6 46 35 191 122 l33 19 -32 56 c-18 30 -37 55 -43 55 -5 -1 -454
-265 -997 -588z m1020 -954 c337 -567 609 -1035 605 -1039 -13 -13 -1166 1027
-1175 1059 -6 20 -109 766 -131 945 -1 11 13 26 38 42 22 13 42 24 45 25 3 0
281 -464 618 -1032z m-839 542 c24 -173 44 -321 47 -328 6 -19 -12 -4 -264
222 -122 110 -220 202 -217 205 19 18 381 227 386 222 4 -3 25 -148 48 -321z
m709 -1590 c155 -139 282 -256 282 -259 -1 -3 -112 -72 -248 -152 l-247 -147
-7 27 c-4 14 -30 195 -58 401 -28 206 -53 389 -56 405 l-6 30 28 -26 c16 -14
156 -140 312 -279z"/>
<path d="M44743 31488 c-16 -24 -33 -48 -36 -54 -4 -7 28 -34 79 -68 58 -39
82 -60 77 -69 -21 -35 -1234 -1843 -1280 -1909 l-54 -77 -85 56 c-46 31 -86
54 -87 52 -20 -24 -67 -100 -67 -107 0 -7 452 -313 702 -476 l27 -18 37 56
c20 31 35 58 33 60 -2 2 -34 23 -71 48 l-67 44 667 996 c367 549 671 997 675
998 4 0 38 -20 74 -45 l67 -44 37 56 38 56 -57 40 c-103 72 -653 438 -667 443
-8 3 -25 -12 -42 -38z"/>
<path d="M28542 31317 l-43 -44 142 -159 c78 -87 145 -160 149 -162 4 -1 28
17 53 40 l47 43 -146 163 c-80 89 -149 162 -153 162 -4 0 -26 -19 -49 -43z"/>
<path d="M46807 31104 c-76 -85 -140 -160 -143 -167 -5 -13 67 -87 85 -87 4 0
61 60 126 133 65 72 130 144 144 160 l25 27 -35 36 c-19 20 -41 39 -49 44 -11
6 -50 -31 -153 -146z"/>
<path d="M27290 30144 l-45 -46 140 -134 c77 -74 155 -147 173 -161 l33 -26
45 44 45 45 -148 139 c-81 76 -159 149 -173 162 l-26 23 -44 -46z"/>
<path d="M48034 29925 c-93 -87 -170 -160 -172 -164 -1 -4 18 -26 42 -50 l45
-44 93 86 c51 47 129 119 173 160 l80 75 -46 47 -46 47 -169 -157z"/>
<path d="M37643 29368 c-48 -53 -50 -65 -57 -417 -23 -1181 -149 -1849 -471
-2492 -65 -128 -79 -186 -78 -309 1 -201 75 -327 262 -448 146 -94 220 -188
256 -327 17 -63 22 -276 10 -425 -3 -41 -17 -428 -30 -860 -70 -2210 -124
-3546 -144 -3578 -3 -5 -35 -24 -71 -42 -183 -91 -334 -252 -402 -427 -41
-106 -58 -200 -58 -324 0 -173 41 -315 133 -456 134 -208 284 -320 497 -374
112 -29 307 -23 415 11 253 81 455 254 556 476 80 175 93 417 33 605 l-15 47
184 323 c382 672 734 1303 950 1704 144 268 165 284 406 296 170 8 260 28 359
78 136 69 236 167 306 301 55 105 76 194 86 380 37 632 161 1099 433 1630 200
389 239 471 244 510 7 53 -15 80 -68 80 -36 0 -43 -6 -120 -97 -45 -53 -113
-145 -152 -203 -368 -552 -795 -973 -1255 -1236 -225 -129 -267 -158 -347
-238 -220 -222 -260 -471 -130 -802 54 -135 63 -197 41 -282 -23 -91 -36 -113
-296 -507 -368 -558 -736 -1137 -914 -1437 l-58 -97 -66 33 c-37 18 -83 39
-102 46 -19 8 -37 15 -40 18 -3 2 -8 754 -12 1670 -6 1673 -8 1765 -48 2372
-38 579 -44 750 -26 822 31 119 60 164 195 298 197 196 251 295 259 475 6 133
-11 215 -108 538 -177 593 -329 1303 -359 1682 -6 72 -13 245 -16 385 -3 140
-8 324 -11 408 -6 144 -8 155 -31 183 -21 25 -32 29 -72 29 -37 0 -52 -5 -68
-22z m117 -9219 c170 -27 312 -156 356 -324 37 -138 -3 -289 -104 -398 -87
-93 -189 -137 -317 -137 -129 0 -229 44 -318 139 -157 168 -153 421 9 592 78
81 170 124 299 138 6 0 39 -4 75 -10z"/>
<path d="M26235 28970 c-21 -28 -36 -52 -34 -54 50 -40 371 -277 373 -274 2 1
19 25 39 52 l37 48 -183 139 c-100 76 -185 139 -189 139 -3 0 -23 -23 -43 -50z"/>
<path d="M49079 28779 c-96 -71 -178 -134 -183 -139 -12 -12 63 -112 77 -103
44 27 357 267 357 275 0 11 -62 97 -71 98 -3 0 -84 -59 -180 -131z"/>
<path d="M25316 27658 c-19 -29 -31 -56 -28 -60 4 -4 91 -61 194 -127 l187
-120 31 50 c16 27 30 53 30 58 0 5 -62 49 -137 97 -76 48 -162 103 -190 121
l-53 34 -34 -53z"/>
<path d="M49995 27479 c-93 -60 -177 -113 -185 -118 -12 -8 -12 -14 5 -44 47
-87 27 -91 240 44 105 67 191 123 193 124 7 6 -61 105 -71 104 -7 0 -88 -50
-182 -110z"/>
<path d="M25850 25808 c-250 -396 -456 -726 -458 -733 -3 -12 88 -76 106 -75
4 1 37 50 75 110 65 106 68 109 95 100 15 -5 313 -86 662 -180 406 -109 641
-177 651 -188 25 -26 659 -949 659 -958 0 -5 -25 -47 -55 -94 l-54 -85 22 -17
c12 -9 38 -26 58 -37 l36 -20 459 725 c252 400 460 729 462 733 2 6 -98 71
-110 71 -4 0 -30 -38 -60 -85 -29 -47 -55 -85 -58 -85 -3 0 -342 92 -755 203
l-750 203 -282 409 -282 409 21 35 c12 20 46 73 75 118 29 46 53 85 53 88 0 5
-102 75 -110 75 -3 -1 -210 -325 -460 -722z m495 -39 c99 -144 184 -268 189
-276 10 -19 21 -21 -337 75 l-286 78 121 192 c67 106 124 192 127 192 3 0 87
-118 186 -261z m1707 -1206 c15 -7 -7 -45 -139 -255 l-156 -247 -243 352
c-134 194 -244 355 -244 358 0 6 751 -194 782 -208z"/>
<path d="M49333 26459 c-29 -17 -53 -34 -53 -37 0 -4 25 -52 55 -106 30 -55
54 -100 53 -101 -22 -14 -2085 -1161 -2092 -1163 -6 -1 -35 42 -65 95 -30 54
-55 100 -57 101 -1 2 -30 -11 -63 -28 l-60 -32 37 -67 c549 -987 709 -1271
717 -1271 6 0 34 14 63 30 l53 31 -37 65 c-20 36 -33 69 -28 73 5 5 468 264
1029 576 561 312 1030 573 1041 581 20 12 23 9 59 -56 l38 -69 56 31 c31 18
58 33 60 34 5 4 -742 1344 -749 1344 -3 0 -29 -14 -57 -31z m338 -746 l29 -51
-42 -25 c-157 -91 -2060 -1148 -2062 -1145 -20 25 -58 112 -51 115 6 3 476
265 1045 583 569 318 1039 578 1043 577 5 -2 22 -25 38 -54z"/>
<path d="M24590 26349 c-34 -61 -60 -112 -58 -114 1 -2 99 -56 217 -120 169
-93 215 -115 222 -104 23 34 109 197 109 206 0 5 -57 40 -127 78 -70 39 -167
91 -214 117 l-87 48 -62 -111z"/>
<path d="M50653 26223 l-213 -116 52 -96 c28 -53 56 -103 62 -112 10 -15 37
-3 221 98 116 63 213 118 217 121 7 8 -105 215 -118 219 -5 1 -105 -50 -221
-114z"/>
<path d="M24071 25044 c-12 -30 -21 -58 -21 -63 0 -5 89 -39 198 -76 108 -37
202 -70 208 -72 10 -4 60 116 51 122 -1 2 -95 34 -209 73 l-207 71 -20 -55z"/>
<path d="M51255 24954 c-71 -24 -162 -55 -202 -70 l-71 -25 20 -60 c11 -32 25
-59 30 -59 11 0 399 131 407 137 9 6 -33 123 -43 122 -6 0 -69 -20 -141 -45z"/>
<path d="M23630 23640 c-7 -33 -11 -62 -9 -65 10 -9 445 -113 450 -107 9 11
30 114 25 120 -5 4 -432 112 -446 112 -4 0 -13 -27 -20 -60z"/>
<path d="M51635 23526 c-236 -59 -221 -48 -196 -143 l11 -40 222 54 c123 30
225 56 227 59 2 2 -2 31 -9 64 -9 44 -17 60 -29 59 -9 -1 -110 -25 -226 -53z"/>
<path d="M23283 22108 c-5 -35 -8 -65 -6 -68 6 -7 454 -67 458 -60 2 3 7 33
10 65 l7 60 -213 28 c-118 16 -221 31 -231 33 -13 4 -18 -7 -25 -58z"/>
<path d="M51982 22017 c-214 -29 -223 -32 -218 -51 3 -12 6 -34 6 -51 1 -62
-3 -62 237 -30 120 15 222 31 226 35 11 10 -5 123 -18 125 -5 1 -110 -11 -233
-28z"/>
<path d="M23120 20506 c0 -78 -13 -72 180 -81 74 -3 168 -8 208 -12 l72 -6 0
66 0 65 -37 6 c-21 3 -101 8 -178 11 -77 3 -164 8 -192 12 l-53 5 0 -66z"/>
<path d="M52135 20435 c-110 -7 -201 -13 -202 -14 -2 0 -3 -31 -3 -67 l0 -66
63 6 c34 3 127 8 207 11 204 8 190 3 190 80 0 65 0 65 -27 64 -16 -1 -118 -7
-228 -14z"/>
<path d="M24676 20308 c-5 -78 -47 -2027 -46 -2169 l0 -66 62 -7 c34 -3 62 -5
64 -3 1 1 6 62 10 135 l7 132 86 0 c47 0 583 -11 1191 -25 608 -14 1110 -25
1115 -25 7 0 9 -47 7 -135 l-4 -135 71 0 71 0 0 98 c0 112 37 1855 44 2075 l4
147 -69 0 -69 0 0 -99 c0 -55 -3 -102 -8 -104 -4 -3 -341 -87 -749 -187 l-741
-181 -456 228 -456 228 0 87 0 88 -64 0 -64 0 -6 -82z m439 -460 c168 -84 305
-155 305 -158 0 -3 -141 -39 -312 -82 -172 -42 -313 -75 -313 -75 0 141 7 467
10 467 3 0 142 -69 310 -152z m2083 -518 c-3 -160 -7 -293 -10 -296 -3 -3
-183 84 -399 192 l-394 198 390 97 c215 53 396 97 404 98 12 1 13 -45 9 -289z
m-548 -250 c297 -149 540 -275 540 -280 0 -6 -38 -10 -92 -10 -65 0 -2281 48
-2315 50 -2 0 -3 43 -3 95 0 90 1 95 23 100 387 97 1277 313 1290 314 9 1 260
-121 557 -269z"/>
<path d="M48330 19135 l0 -1055 70 0 70 0 0 75 0 75 1200 0 1200 0 0 -75 0
-75 70 0 70 0 0 1055 0 1055 -70 0 -70 0 0 -100 0 -100 -1200 0 -1200 0 0 100
0 100 -70 0 -70 0 0 -1055z m2540 300 l0 -55 -1200 0 -1200 0 0 55 0 55 1200
0 1200 0 0 -55z m0 -630 l0 -65 -1200 0 -1200 0 0 65 0 65 1200 0 1200 0 0
-65z"/>
<path d="M51910 19149 l0 -129 261 0 262 0 -6 121 c-3 66 -7 122 -9 123 -1 2
-117 6 -255 9 l-253 5 0 -129z"/>
<path d="M23100 19136 l0 -123 53 -7 c28 -3 143 -6 255 -6 l202 0 0 130 0 130
-255 0 -255 0 0 -124z"/>
<path d="M23452 17956 c-111 -30 -205 -55 -207 -58 -4 -4 22 -104 30 -119 2
-3 102 20 222 50 214 55 218 57 215 81 -6 59 -23 100 -40 99 -9 0 -108 -24
-220 -53z"/>
<path d="M51890 17866 c0 -18 -3 -47 -6 -63 l-6 -30 129 -11 c70 -7 167 -15
214 -18 l87 -7 7 62 c4 34 6 64 4 65 -5 4 -363 36 -401 36 -25 0 -28 -4 -28
-34z"/>
<path d="M15835 11669 c-364 -40 -681 -239 -822 -514 -72 -140 -98 -277 -90
-473 20 -482 284 -707 1052 -897 450 -111 621 -192 693 -329 24 -46 27 -61 27
-156 0 -94 -3 -111 -28 -161 -51 -105 -176 -193 -327 -230 -84 -21 -363 -18
-470 5 -236 51 -455 159 -665 329 -38 31 -73 57 -76 57 -6 0 -339 -395 -339
-402 0 -10 170 -138 260 -198 238 -156 534 -263 830 -300 121 -15 389 -12 500
5 183 27 382 101 508 187 168 114 298 300 353 503 32 115 32 384 1 496 -52
192 -159 331 -350 454 -150 96 -333 164 -702 260 -384 100 -520 155 -616 250
-62 61 -87 128 -88 230 0 100 24 163 91 235 96 104 233 152 428 152 126 0 206
-11 331 -47 116 -34 313 -129 438 -212 54 -36 101 -61 105 -56 3 5 71 101 149
212 122 171 142 204 131 217 -24 29 -234 162 -334 212 -287 143 -658 207 -990
171z"/>
<path d="M9187 11653 c-4 -7 -1390 -3176 -1404 -3211 -4 -10 54 -12 287 -10
l292 3 162 380 162 380 756 3 755 2 158 -377 c87 -208 161 -381 165 -386 3 -4
140 -6 303 -5 l296 3 -703 1610 -703 1610 -261 3 c-143 1 -263 -1 -265 -5z
m527 -1313 c148 -342 266 -623 264 -625 -3 -3 -246 -4 -541 -3 l-535 3 266
623 c147 342 269 622 273 622 3 0 126 -279 273 -620z"/>
<path d="M25247 11648 c-3 -7 -318 -730 -701 -1606 -383 -876 -696 -1597 -696
-1602 0 -6 107 -10 288 -10 l287 0 164 385 163 385 756 -2 755 -3 161 -382
160 -383 298 0 c164 0 298 3 298 6 0 10 -1393 3198 -1403 3212 -7 9 -73 12
-267 12 -197 0 -259 -3 -263 -12z m518 -1278 c142 -327 264 -610 271 -627 l14
-33 -544 0 -544 0 270 630 c149 347 272 629 273 628 2 -2 119 -271 260 -598z"/>
<path d="M32436 10063 c-384 -879 -701 -1606 -703 -1615 -5 -17 13 -18 284
-18 l289 0 163 385 164 385 756 -2 755 -3 161 -382 160 -383 298 0 c163 0 297
3 297 7 0 5 -316 731 -702 1615 l-703 1608 -260 0 -261 0 -698 -1597z m1224
276 l269 -624 -536 -3 c-295 -1 -538 0 -541 2 -2 3 116 287 263 631 148 343
270 623 272 622 2 -2 124 -285 273 -628z"/>
<path d="M55693 11648 c-11 -15 -1403 -3201 -1403 -3211 0 -4 130 -7 288 -7
l289 0 164 385 163 385 756 0 755 0 160 -383 160 -382 299 -3 c281 -2 298 -1
294 15 -3 10 -319 737 -703 1616 l-698 1597 -257 0 c-194 0 -260 -3 -267 -12z
m533 -1319 c141 -327 258 -600 261 -606 4 -10 -107 -13 -537 -13 -512 0 -542
1 -536 18 4 9 125 293 269 629 237 554 263 610 274 590 6 -13 127 -291 269
-618z"/>
<path d="M11503 10578 c3 -939 5 -1062 20 -1138 61 -307 168 -524 346 -701
163 -162 357 -265 601 -317 300 -65 637 -52 915 35 431 135 717 469 814 948
36 180 41 327 41 1291 l0 934 -285 0 -285 0 0 -972 c0 -562 -5 -1004 -10
-1047 -47 -360 -225 -584 -535 -673 -70 -20 -102 -23 -255 -23 -152 0 -185 3
-254 23 -270 78 -440 262 -516 556 -35 140 -40 275 -40 1219 l0 917 -280 0
-281 0 4 -1052z"/>
<path d="M17630 11370 l0 -260 505 0 505 0 0 -1340 0 -1340 285 0 285 0 2
1338 3 1337 508 3 507 2 0 260 0 260 -1300 0 -1300 0 0 -260z"/>
<path d="M20820 10030 l0 -1600 280 0 280 0 2 558 3 557 349 0 349 0 391 -555
391 -555 339 -3 338 -2 -34 47 c-18 27 -211 296 -427 600 -216 303 -394 555
-395 558 0 4 33 19 74 35 300 109 516 310 609 566 85 231 83 549 -4 769 -116
295 -355 490 -710 580 -165 42 -234 45 -1052 45 l-783 0 0 -1600z m1489 1080
c181 -19 301 -65 396 -152 90 -82 138 -185 151 -322 24 -265 -128 -473 -408
-558 -70 -21 -91 -22 -570 -26 l-498 -3 0 529 c0 291 3 532 7 535 10 11 818 8
922 -3z"/>
<path d="M27730 10030 l0 -1600 1120 0 1120 0 0 260 0 260 -840 0 -840 0 0
1340 0 1340 -280 0 -280 0 0 -1600z"/>
<path d="M30580 10030 l0 -1600 285 0 285 0 0 1600 0 1600 -285 0 -285 0 0
-1600z"/>
<path d="M35610 10030 l0 -1600 275 0 275 0 0 1130 c0 622 3 1130 8 1129 4 0
400 -508 881 -1130 l874 -1129 239 0 238 0 0 1600 0 1600 -280 0 -280 0 -2
-1098 -3 -1098 -850 1098 -850 1098 -262 0 -263 0 0 -1600z"/>
<path d="M40360 11370 l0 -260 505 0 505 0 0 -1340 0 -1340 285 0 285 0 0
1340 0 1340 505 0 505 0 0 260 0 260 -1295 0 -1295 0 0 -260z"/>
<path d="M43570 10030 l0 -1600 285 0 285 0 0 1600 0 1600 -285 0 -285 0 0
-1600z"/>
<path d="M44990 10030 l0 -1600 280 0 280 0 0 1137 0 1138 495 -743 c272 -408
501 -742 509 -742 7 0 238 335 512 745 l499 746 3 -1141 2 -1140 285 0 285 0
0 1600 0 1600 -304 0 -304 0 -482 -750 c-265 -412 -486 -748 -489 -745 -4 2
-223 339 -487 749 l-479 746 -302 0 -303 0 0 -1600z"/>
<path d="M48950 10030 l0 -1600 1200 0 1200 0 0 255 0 255 -915 0 -915 0 0
425 0 425 800 0 800 0 0 255 0 255 -800 0 -800 0 0 415 0 415 905 0 905 0 0
250 0 250 -1190 0 -1190 0 0 -1600z"/>
<path d="M51780 11370 l0 -260 510 0 510 0 0 -1340 0 -1340 285 0 285 0 0
1340 0 1340 505 0 505 0 0 260 0 260 -1300 0 -1300 0 0 -260z"/>
<path d="M58170 10029 l0 -1600 858 4 c917 4 917 4 1117 57 161 43 315 121
432 218 54 45 142 158 176 227 65 130 93 311 76 480 -32 311 -196 508 -541
650 l-77 32 76 48 c212 134 331 316 363 555 38 277 -62 537 -269 703 -86 68
-239 145 -351 176 -177 49 -223 51 -1067 51 l-793 0 0 -1601z m1585 1078 c214
-62 320 -176 332 -355 16 -236 -118 -390 -389 -446 -64 -13 -154 -16 -523 -16
l-445 0 0 421 0 420 483 -3 c421 -4 490 -6 542 -21z m-28 -1307 c273 -22 438
-107 509 -263 26 -55 29 -73 28 -162 0 -80 -5 -112 -23 -157 -34 -87 -106
-160 -205 -208 -144 -70 -164 -72 -768 -77 l-538 -5 0 441 0 441 443 0 c243 0
492 -5 554 -10z"/>
<path d="M61460 10030 l0 -1600 1125 0 1125 0 0 260 0 260 -840 0 -840 0 0
1340 0 1340 -285 0 -285 0 0 -1600z"/>
<path d="M64290 10030 l0 -1600 1200 0 1200 0 0 255 0 255 -915 0 -915 0 0
425 0 425 800 0 800 0 0 255 0 255 -800 0 -800 0 0 415 0 415 905 0 905 0 0
250 0 250 -1190 0 -1190 0 0 -1600z"/>
<path d="M31831 6199 c-575 -61 -1062 -393 -1316 -899 -215 -427 -230 -970
-40 -1419 188 -445 567 -779 1037 -915 148 -43 254 -58 444 -63 324 -9 559 40
829 173 167 82 293 173 425 304 298 299 458 671 477 1110 35 809 -491 1503
-1267 1673 -198 44 -396 56 -589 36z m299 -519 c344 -42 634 -231 803 -522
188 -327 213 -745 64 -1094 -207 -489 -735 -741 -1262 -604 -216 57 -427 198
-562 378 -155 205 -233 446 -233 717 0 308 93 569 277 778 227 257 572 388
913 347z"/>
<path d="M35685 6200 c-389 -44 -715 -199 -981 -464 -231 -232 -379 -506 -444
-826 -120 -588 55 -1175 468 -1571 172 -166 369 -283 601 -359 194 -63 282
-75 551 -74 215 0 246 3 361 27 211 44 374 111 544 221 91 60 235 178 313 258
l53 54 -177 182 c-97 100 -180 182 -185 182 -4 0 -37 -25 -71 -56 -245 -219
-453 -317 -734 -345 -203 -21 -389 12 -569 101 -278 137 -479 396 -561 724
-35 137 -44 368 -20 506 45 258 146 459 316 630 298 299 759 380 1163 205 138
-59 233 -123 427 -283 l27 -22 181 207 181 208 -56 53 c-239 228 -544 376
-881 428 -120 18 -400 26 -507 14z"/>
<path d="M48136 6199 c-211 -22 -406 -78 -591 -170 -161 -80 -287 -171 -420
-304 -255 -255 -407 -558 -466 -930 -21 -128 -15 -408 10 -549 106 -592 501
-1058 1065 -1255 285 -100 674 -119 981 -49 473 108 868 412 1089 838 135 260
195 539 183 850 -18 437 -174 799 -476 1100 -145 145 -266 231 -441 314 -283
134 -614 189 -934 155z m294 -519 c376 -43 680 -261 847 -606 223 -463 126
-1038 -231 -1372 -263 -246 -643 -336 -1013 -241 -113 29 -283 116 -379 193
-267 215 -414 535 -414 901 0 336 116 623 337 835 138 133 261 205 438 255
144 40 273 51 415 35z"/>
<path d="M25516 6189 c-428 -49 -763 -294 -874 -639 -32 -98 -42 -172 -42
-299 1 -360 145 -588 475 -751 148 -73 295 -122 586 -196 389 -98 532 -155
630 -254 68 -67 89 -124 89 -236 0 -145 -75 -261 -213 -329 -102 -49 -174 -66
-312 -72 -335 -15 -664 104 -970 351 -38 31 -73 56 -76 56 -3 0 -81 -90 -174
-201 l-168 -201 29 -24 c285 -238 567 -376 919 -451 121 -25 147 -27 375 -28
263 0 319 7 495 62 324 102 557 336 635 638 30 115 37 303 16 424 -30 169 -89
285 -207 401 -171 169 -371 259 -861 385 -371 96 -517 156 -613 250 -63 61
-88 127 -89 230 0 99 24 163 89 233 101 109 231 156 435 155 254 -1 502 -86
764 -260 54 -36 101 -61 105 -56 3 5 71 101 150 213 l145 203 -35 29 c-121
101 -349 225 -519 282 -241 80 -543 113 -784 85z"/>
<path d="M28392 6189 c-511 -59 -863 -378 -912 -826 -24 -225 25 -444 134
-597 146 -205 393 -328 938 -466 356 -90 516 -153 609 -240 71 -67 93 -124 94
-240 0 -88 -3 -101 -33 -162 -53 -108 -157 -183 -312 -225 -92 -25 -361 -25
-479 1 -242 52 -456 158 -670 331 -37 30 -71 55 -74 55 -8 0 -337 -391 -337
-401 0 -4 32 -33 71 -64 245 -198 554 -347 839 -405 297 -60 626 -54 867 16
240 69 440 210 558 393 112 174 160 393 135 621 -33 303 -180 496 -496 654
-125 62 -290 117 -544 182 -481 123 -648 205 -711 347 -18 41 -23 70 -24 142
0 82 3 96 33 157 38 78 91 128 177 169 101 48 176 63 315 62 253 -2 497 -85
755 -257 80 -53 101 -64 111 -54 7 7 76 103 154 213 l142 200 -29 23 c-129
106 -370 236 -541 292 -234 76 -533 106 -770 79z"/>
<path d="M22235 6108 c-56 -124 -1375 -3146 -1375 -3152 0 -3 130 -6 289 -6
l288 0 136 318 c74 174 148 347 163 385 l28 67 755 0 756 0 161 -382 160 -383
297 -3 c206 -1 297 1 297 8 0 8 -1322 3043 -1391 3193 l-12 27 -259 0 -259 0
-34 -72z m553 -1238 c143 -333 264 -613 267 -622 7 -17 -23 -18 -535 -18 -352
0 -540 3 -538 10 23 68 535 1247 539 1242 3 -4 124 -279 267 -612z"/>
<path d="M40306 6152 c-19 -38 -1396 -3189 -1396 -3196 0 -3 130 -6 289 -6
l288 0 153 358 c84 196 157 369 162 385 l10 27 756 0 757 0 161 -382 161 -383
296 -3 c208 -2 297 1 297 9 0 8 -1323 3045 -1391 3192 l-12 27 -258 0 -258 0
-15 -28z m532 -1282 c144 -333 264 -613 267 -622 7 -17 -23 -18 -535 -18 -352
0 -540 3 -538 10 23 68 535 1247 539 1242 4 -4 124 -279 267 -612z"/>
<path d="M37770 4550 l0 -1600 280 0 280 0 0 1600 0 1600 -280 0 -280 0 0
-1600z"/>
<path d="M42150 5890 l0 -260 505 0 505 0 0 -1340 0 -1340 285 0 285 0 0 1340
0 1340 510 0 510 0 0 260 0 260 -1300 0 -1300 0 0 -260z"/>
<path d="M45370 4550 l0 -1600 285 0 285 0 0 1600 0 1600 -285 0 -285 0 0
-1600z"/>
<path d="M50670 4550 l0 -1600 275 0 275 0 0 1130 c0 622 3 1130 8 1129 4 0
400 -509 881 -1130 l874 -1129 239 0 238 0 0 1600 0 1600 -280 0 -280 0 -2
-1098 -3 -1098 -850 1098 -850 1097 -262 1 -263 0 0 -1600z"/>
</g>
</svg>
