<svg xmlns="http://www.w3.org/2000/svg" height="19" width="19" viewBox="0 0 16 16"><defs><linearGradient x1="2.21" y1="8.443" x2="22.495" y2="2.653" id="1" gradientUnits="userSpaceOnUse"><stop stop-color="#9ad51a"/><stop offset="1" stop-color="#d4f292"/></linearGradient><radialGradient cx="2.597" cy="1044.5" r="8" id="0" gradientUnits="userSpaceOnUse" gradientTransform="matrix(1.28328 -0.46251 0.33906 0.94077 -356.29 -972.62)"><stop stop-color="#1b6e03"/><stop offset="1" stop-color="#379f18"/></radialGradient></defs><path d="m 8 12.713 l -4.714 -4.714 l 4.714 -4.713 l 1.571 1.571 l -3.143 3.142 l 1.571 1.571 l 4.714 -4.713 l -4.106 -4.106 c -0.335 -0.336 -0.879 -0.336 -1.215 0 l -6.641 6.641 c -0.335 0.335 -0.335 0.879 0 1.215 l 6.641 6.641 c 0.336 0.336 0.879 0.336 1.215 0 l 6.641 -6.641 c 0.335 -0.336 0.335 -0.88 0 -1.215 l -0.964 -0.964 l -6.285 6.285 z" fill="url(#1)"/><path d="m 8 12.713 l -4.714 -4.714 l 4.714 -4.713 l 1.571 1.571 l -3.143 3.142 l 1.32 1.32 l 0.252 0.252 l 0.294 -0.294 l 4.42 -4.419 l -4.106 -4.106 c -0.335 -0.336 -0.879 -0.336 -1.215 0 l -6.641 6.641 c -0.335 0.335 -0.335 0.879 0 1.215 l 6.641 6.641 c 0.336 0.336 0.879 0.336 1.215 0 l 6.641 -6.641 c 0.335 -0.336 0.335 -0.88 0 -1.215 l -0.964 -0.964 z" fill="none" stroke="url(#0)"/></svg>
