<?xml version="1.0" encoding="UTF-8" standalone="no"?>
<svg
   xmlns:dc="http://purl.org/dc/elements/1.1/"
   xmlns:cc="http://creativecommons.org/ns#"
   xmlns:rdf="http://www.w3.org/1999/02/22-rdf-syntax-ns#"
   xmlns:svg="http://www.w3.org/2000/svg"
   xmlns="http://www.w3.org/2000/svg"
   xmlns:xlink="http://www.w3.org/1999/xlink"
   xml:space="preserve"
   style="enable-background:new 0 0 473.7 461;"
   viewBox="0 0 473.7 461"
   y="0px"
   x="0px"
   id="Layer_1"
   version="1.1"><metadata
     id="metadata259"><rdf:RDF><cc:Work
         rdf:about=""><dc:format>image/svg+xml</dc:format><dc:type
           rdf:resource="http://purl.org/dc/dcmitype/StillImage" /><dc:title></dc:title></cc:Work></rdf:RDF></metadata><defs
     id="defs257"><clipPath
       id="clipPath4524"
       clipPathUnits="userSpaceOnUse"><rect
         y="77.011055"
         x="78.731544"
         height="337.02628"
         width="395.03897"
         id="rect4526"
         style="fill:#cccccc;fill-opacity:1;stroke:#000000;stroke-width:0.99921262;stroke-miterlimit:4;stroke-dasharray:none;stroke-dashoffset:0;stroke-opacity:1" /></clipPath><clipPath
       id="clipPath4530"
       clipPathUnits="userSpaceOnUse"><rect
         y="75.629799"
         x="91.162842"
         height="327.35748"
         width="386.75146"
         id="rect4532"
         style="fill:#cccccc;fill-opacity:1;stroke:#000000;stroke-width:0.99921262;stroke-miterlimit:4;stroke-dasharray:none;stroke-dashoffset:0;stroke-opacity:1" /></clipPath></defs><style
     id="style3"
     type="text/css">
	.st0{fill:#83D0F5;}
	.st1{clip-path:url(#SVGID_2_);fill:#FFFFFF;}
	.st2{fill:none;stroke:#95C11F;stroke-width:2;stroke-miterlimit:10;}
	.st3{fill:none;stroke:#95C11F;stroke-width:2;stroke-miterlimit:10;stroke-dasharray:5.0978,2.0391;}
	.st4{fill:none;stroke:#95C11F;stroke-width:2;stroke-miterlimit:10;stroke-dasharray:5.0543,2.0217;}
	.st5{fill:none;stroke:#95C11F;stroke-width:2;stroke-miterlimit:10;stroke-dasharray:5,2;}
	.st6{fill:#95C11F;}
	.st7{fill:#FFFFFF;stroke:#95C11F;stroke-width:2;stroke-miterlimit:10;}
	.st8{fill:#183E75;}
	.st9{fill:#FFFFFF;}
	.st10{fill:none;stroke:#83D0F5;stroke-width:8;stroke-miterlimit:10;}
	.st11{fill:#009FE3;}
	.st12{clip-path:url(#SVGID_4_);fill:#83D0F5;}
	.st13{fill:none;stroke:#009FE3;stroke-width:2;stroke-miterlimit:10;}
	.st14{fill:#00A295;}
	.st15{fill:none;stroke:#00A295;stroke-width:2;stroke-miterlimit:10;stroke-dasharray:5,2;}
</style><g
     clip-path="url(#clipPath4530)"
     id="g4391"><circle
       class="st0"
       cx="230.7"
       cy="229.9"
       r="226.4"
       id="circle5" /><g
       id="g7"><g
         id="g9"><defs
           id="defs11"><circle
             id="SVGID_1_"
             cx="230.7"
             cy="229.9"
             r="226.4" /></defs><clipPath
           id="SVGID_2_"><use
             xlink:href="#SVGID_1_"
             style="overflow:visible;"
             id="use15" /></clipPath><path
           class="st1"
           d="M443.6-133c-4.2-5.5-7.7-12.6-8.4-15.5c-0.7-2.9,1.3-4.8,4.2-6.5c2.9-1.6,0.6-9-1.9-18.4    c-2.6-9.4-0.3-21.9,1.3-24.8s3.2-3.9-1-4.8c-4.2-1-4.2-1.9-6.5-8.4s-3.2-10.6-1.9-13.2c1.3-2.6-1.9-6.5-6.5-7.1    c-4.5-0.6-5.8-4.5-8.1-6.8s0-10.3-10.6-16.5c-10.6-6.1-8.1-11.3-10-14.8s-6.8-7.4-8.4-9c-1.6-1.6-6.1-0.3-9-3.2s-7.1-7.1-10.3-9    s-3.5-3.5-11-5.8c-7.4-2.3-7.7-11.6-8.7-17.1s-1.6-7.7,0.6-10c2.3-2.3,0.6-5.2,1.3-10.6c0.6-5.5-1-3.2-2.6-4.5s0.3-2.6-1.6-6.5    s-4.8-0.6-3.9,3.5c1,4.2-4.8,1.9-7.7-1s-7.7-4.8-11-11c-3.2-6.1-3.2,5.2-2.9,12.3c0.3,7.1-1.3,4.8-4.5,0.6    c-3.2-4.2-5.8-1.9-7.7-1.6c-1.9,0.3-3.5-8.4-4.2-13.2c-0.6-4.8-7.4-23.9-9.7-29.4c-2.3-5.5-3.2-9.4-4.2-12.6s-10.3-8.1-14.8-12.3    c-4.5-4.2-4.8-8.1-3.5-11.9c1.3-3.9,4.5,0.6,3.9-2.6s-7.1-8.1-9.7-12.3c-2.6-4.2-4.2-1.3-5.5,0s-4.2-1.3-5.5-4.5s-11.3-6.8-14.8-9    c-3.5-2.3-5.2-1.6-7.4,0.3c-2.3,1.9-3.2-3.2-4.5-5.2c-1.3-1.9-5.2-7.7-6.8-11.6c-1.6-3.9-3.5-0.3-7.1,1c-3.5,1.3-6.8-2.9-6.8-5.8    s-0.6-3.5-4.5-0.3s-9-0.6-14.8-5.5c-5.8-4.8-11.3-9-9.4-15.5s-1.6-8.1-6.1-11.6s-3.9-11.9-3.2-18.4c0.6-6.5,0.6-20.3-1.6-23.9    c-2.3-3.5-2.9-9.4-3.9-14.2s-0.6-3.5-3.5-2.3c-2.9,1.3-2.6-1.6-3.9-3.5c-1.3-1.9-4.8-6.1-8.1-10.6c-3.2-4.5-6.8-8.1-5.8-14.8    c1-6.8-1.3-18.4-2.6-22.6c-1.3-4.2-1-10,0-12.3s1-2.9-0.3-4.8c-1.3-1.9-1-4.2,0.6-7.4s-2.9-4.2-5.2-5.8c-2.3-1.6-5.2-3.2-8.4-5.8    c-3.2-2.6-5.2-4.8-9-6.1c-3.9-1.3-7.1-6.1-10.3-10.3c-3.2-4.2-4.5,0-6.8-1s-2.9,0-5.2,3.5c-2.3,3.5-4.2,4.8-9.7,5.8    s-6.1-13.6-7.4-18.7c-1.3-5.2-7.7-38.1-7.4-42.3s0.3-3.9-1.6-3.9s-4.8,1.6-2.9-3.2c1.9-4.8-4.2-13.6-6.1-15.5s-4.8-0.3-5.8-2.9    c-1-2.6,0.6-7.4,2.9-10c2.3-2.6,4.2-4.2-5.8-4.8s-9.4-25.5-11-32.6s-3.5-5.5-5.5-5.8c-1.9-0.3-2.6-0.3-1.3-2.3    c1.3-1.9,2.3-1.6,1.3-4.5s-6.8,1.6-11,3.9c-4.2,2.3-5.5,1.6-6.8,9.7c-1.3,8.1-7.7,31-10,34.5s-5.5,10.3-7.4,13.9    c-1.9,3.5-0.6,5.5,1.3,4.8s5.8,2.6,8.1,5.2c2.3,2.6,0,6.1-1.3,3.5s-2.9,1.3-5.5,3.9c-2.6,2.6-1.9,5.8-1.6,10    c0.3,4.2-0.3,10.6-4.2,15.8s-3.5,17.1-1.6,21.6s2.6,8.4,1.6,14.8c-1,6.5,0.6,17.1,2.3,21.9c1.6,4.8-6.5,29-7.4,32.9    c-1,3.9-1.9,7.7-1.3,11c0.6,3.2-0.3,3.2-1.6,6.5c-1.3,3.2-11,28.1-17.7,42.9c-6.8,14.8-25.8,15.8-30.7,15.8    c-4.8,0-16.8-9-23.2-13.2c-6.5-4.2-12.6-11.3-13.9-14.2s-10.6-7.1-10.6-7.1s-26.1-9-29-10c-2.9-1-13.9-8.4-16.5-10    c-2.6-1.6-23.9-14.8-26.5-15.8c-2.6-1-5.2,0.3-7.7,1c-2.6,0.6-8.4-5.2-10.3-8.4c-1.9-3.2-21.9-16.5-34.5-26.8    c-12.6-10.3-1.6-20.7-1.6-20.7c10.6-10.3,15.2-25.8,17.7-30.3c2.6-4.5,0-2.9-4.2-1.6c-4.2,1.3-2.3-5.5-2.6-9    c-0.3-3.5,1.6-7.1,3.9-7.1s9.4-3.2,13.2-4.8c3.9-1.6,2.3-0.6,3.5,4.2c0.5,1.8,3.5-3.5,3.9-7.1c0.3-3.5-0.3-5.8,3.2-5.2    s1.3-1-1.6-3.2c-2.9-2.3-1.6-3.5,1.3-2.6c2.9,1,1.9-0.6,3.5-5.2c1.6-4.5,2.9-8.1,7.7-11s3.5-3.9,1-6.1c-2.6-2.3-2.6-2.6-3.9-1    c-1.3,1.6-4.5,1.6-5.8-1.6s-6.5-5.5-3.2-9.4c3.2-3.9-6.1,2.3-10.6,4.8c-4.5,2.6-2.6,5.5,0.3,6.5c2.9,1,2.6,1.9,1,4.5    c-1.6,2.6-3.2,3.9-5.5,2.9s-2.9-4.5-5.2-6.1c-2.3-1.6-3.2-1.6,0.3-4.8s-4.8,1.3-7.4,3.5c-2.6,2.3-4.8,0.6-5.8-1.9    c-1-2.6,1.3-4.2,4.5-6.8s4.5-0.6,3.2-1.9c-1.3-1.3-3.2,1.9-0.3-4.2c2.9-6.1-1.9-1.3-6.8,3.2c-4.8,4.5-6.5,6.5-10.3,7.4    c-3.9,1-8.4,2.6-5.2,4.5s-2.9,1.9-6.1,0.6c-3.2-1.3-12.6-7.1-14.2-10.3c-1.6-3.2-7.4,1.9-10.6,2.6c-3.2,0.6-6.5-0.3-8.7-0.3    c-2.3,0-3.2-1-3.9-4.2c-0.6-3.2-7.1-5.5-9.7-7.1c-2.6-1.6-7.4,0.3-10.6,1.3c-3.2,1-4.2,0.6-4.2-1.6c0-2.3-3.5-1.9-9.4-4.5    c-5.8-2.6-8.4-5.2-11-8.1c-2.6-2.9-3.5-2.6-5.8-1c-2.3,1.6-1.6,2.6-5.5,2.3s-10.3-8.7-11.9-10.6c-1.6-1.9-2.6-1.3-3.5,0.3    c-1,1.6-1.3,1.9-2.6,0.3c-1.3-1.6-4.2-6.8-1.9,1.9c2.3,8.7-1.6,1.6-3.5-1.3c-1.9-2.9-5.2-1.9-8.1-1.3c-2.9,0.6-2.3,2.3,1,4.2    c3.2,1.9,1.6,4.8,3.2,4.8c1.6,0,2.9,0.6,2.9,2.6c0,1.9,3.9,0,6.1-1c2.3-1,8.4-0.6,10,1s2.3,3.5,4.5,5.2c2.3,1.6,3.2,2.6,1.6,7.4    c-1.6,4.8-1.6,6.8,1.6,10.3s-3.5,4.8-7.4,7.7s-3.2,0-4.2-2.3s-6.5-0.3-10.6,2.3c-4.2,2.6-16.5,1-21.6,0.3    c-5.2-0.6-5.8-1.9-8.1-5.8c-2.3-3.9-2.3-1.3-2.9,1c-0.6,2.3-2.9,1.6-5.5-0.3c-2.6-1.9-4.2,1.9-3.2,4.5s-1.6,2.6-4.2,3.2    c-2.6,0.6-1.6,1.9,0.6,6.1c2.3,4.2-1,3.2-2.3,2.9c-1.3-0.3-2.3-1.3-3.5-3.5c-1.3-2.3-3.2-3.9-5.5-3.9c-2.3,0-2.3,1.3-1.9,6.8    c0.3,5.5-1.3,2.3-4.8,2.9c-3.5,0.6-3.2,3.2-9.7,8.7s-1.9,11.3,1,14.8s1.9,4.5-0.3,5.2c-2.3,0.6-5.5,3.9-9.4,5.2s0.3-2.6-2.9-2.9    c-3.2-0.3-7.7,17.7-10,20.7c-2.3,2.9-2.6,3.9-5.2,2.6s-1,1.3-2.9,5.2s-1,5.5,1.3,11s6.8,11.3,11.9,12.6c5.2,1.3,3.9,2.6,0.6,3.9    s-6.1,1.6-6.1,5.5s3.5,6.1,0.6,5.8s-5.2-8.1-8.1-9c-2.9-1-5.2-0.6-7.1,3.2c-1.9,3.9-0.6,5.2-2.9,7.4c-2.3,2.3-1.6-3.2-0.3-6.5    c1.3-3.2-3.9-5.2-8.1-7.1c-4.2-1.9-13.9-1-18.1-1.9c-4.2-1-3.5,1.9-2.6,6.8c1,4.8,0.3,3.2-4.2,1.9s-3.9,2.6-2.3,7.4    c1.6,4.8,2.3,7.1-0.3,6.8c-2.6-0.3-3.2-3.5-6.5,1.9c-3.2,5.5-1-5.8-0.6-10c0.3-4.2,0.6-11.6,3.5-13.9c2.9-2.3,2.6-6.5,0-9    c-2.6-2.6-24.2-20.7-26.8-23.6c-2.6-2.9-9-1.6-12.3-1.6c-3.2,0-4.2-2.6-5.5-7.1s-2.9,2.3-4.5,4.8c-1.6,2.6-6.1,9.7-9.7,12.9    c-3.5,3.2-1-1.9-3.5-3.2c-2.6-1.3-3.2-1.6-0.6-6.1c2.6-4.5-5.8,1.3-9.4,3.9c-3.5,2.6-2.9,2.9-2.3-0.3c0.6-3.2-1.6-5.2-5.2-4.5    c-3.5,0.6-1.3,2.6,2.3,4.2c3.5,1.6-0.3,4.2-2.9,11.9c-2.6,7.7-1,5.2-4.5,6.1c-3.5,1-4.2,1-3.5-1.6c0.6-2.6-2.6-1.9-5.2-1.6    c-2.6,0.3-1.9-0.3-1.3-4.5c0.6-4.2-4.2,0-2.9,2.6s-2.9,4.2-4.8,5.2c-1.9,1-1.9,1.6-4.5-0.3c-2.6-1.9-5.5,3.2-6.5,6.5    c-1,3.2-1,5.8,1,6.1c1.9,0.3,3.9,0.6,3.2,3.9c-0.6,3.2,2.3,1.6,2.3,3.9c0,2.3-2.6,3.9-4.8,1.3c-2.3-2.6-3.9,0-6.1-2.9    c-2.3-2.9-1.3,5.2-1.9,9c-0.6,3.9,1,1.9,2.6,4.5c1.6,2.6,2.6,4.8,0.3,5.5c-2.3,0.6-3.2-0.6-4.8-2.6c-1.6-1.9-5.2-3.5-8.4-4.8    c-3.2-1.3-5.2,1.9-4.8,4.5c0.3,2.6-3.9,2.6-7.7,3.5c-3.9,1-0.3,9.7,0.3,14.5c0.6,4.8,4.2,1,4.2,1s2.9,1.3,1.6,4.5s-1,3.9-3.5,2.6    c-2.6-1.3-2.9,1.9-4.2,5.5c-1.3,3.5,0,4.5,4.5,4.5s3.2,2.6,1,3.2c-2.3,0.6-4.8-1.6-7.4-1c-2.6,0.6-2.9,1.3-4.5-1.3    c-1.6-2.6-4.5-3.2-7.7-4.2s-3.5,0.3-2.3,2.6c1.3,2.3-2.3,2.9-4.5,2.3c-2.3-0.6-2.3-1.9-2.6-4.8c-0.3-2.9-0.6-3.2-3.2-4.2    c-2.6-1-2.9-1-1,2.3c1.9,3.2,2.6,7.1,0,7.4c-2.6,0.3,0,0-3.5,2.6c-1.8,1.4,1.3,1.6-1.6,1.9c-2.9,0.3-3.2,2.6,0,2.3s2.6,1,2.6,3.9    s2.6,2.6,4.5,5.5c1.9,2.9,1.6,5.2,5.5,3.2c3.9-1.9,2.3,1.9,1,3.5c-1.3,1.6-2.3,1.6-1.3,5.8c1,4.2-2.9,0-5.2-3.2s-4.8-2.6-3.2,1.9    s-0.6,6.1-1,16.8c-0.3,10.6-5.2-1-6.8-5.2c-1.6-4.2-4.8-12.9-7.7-14.8c-2.9-1.9-2.6-5.2-2.9-7.4c-0.3-2.3-1.6-2.6-3.9-4.2    c-2.3-1.6-1.9-2.9-2.3-5.5c-0.3-2.6,1.6-6.1-0.3-7.4c-1.9-1.3-4.8,8.1-5.8,10.6c-1,2.6-2.3,4.5-5.5,4.8s-4.2,1.3-5.2,3.5    c-1,2.3-1,2.6-3.5,2.3c-2.6-0.3-4.5,4.2-8.4,9.7s-4.2,15.2-2.9,18.1c1.3,2.9,1.3,5.5,0.6,9.7c-0.6,4.2-0.6,5.5,1.3,4.2    c1.9-1.3,1.3-2.6,5.8,1c4.5,3.5-12.3,12.9-18.1,16.8s-5.2,9.4-7.1,11.6c-1.9,2.3-3.2,6.5-5.5,12.3s-16.1,20-23.9,24.5    s-38.7,13.6-45.5,15.2s-5.2,3.2-15.2-0.3s-15.8,8.7-19.4,10.3c-3.5,1.6-20,3.9-24.2,3.2c-4.2-0.6-13.6,10.6-19,11.9    c-5.5,1.3-17.4,2.9-19.7,0.3s-2.6-1.9-7.1-1c-4.5,1-9.7,2.6-8.1-2.3c1.6-4.8-5.8,1-10.3,4.8c-4.5,3.9-36.8,26.5-40.7,29.7    s-23.6,12.3-30.7,15.8c-7.1,3.5-9.7,18.1-11.3,22.9s-3.9,4.8-8.1,5.2c-4.2,0.3-3.9-18.7-4.8-25.8c-1-7.1-3.2,0.3-5.5,6.1    c-2.3,5.8-4.2,11.9-8.7,17.4s2.9,12.9,5.2,21c2.3,8.1-1.3,20.3-6.5,24.8c-5.2,4.5-3.5,9-8.1,19.4c-4.5,10.3,6.1,23.9,9.4,30.7    c3.2,6.8,12.9,28.1,18.1,36.8c5.2,8.7,0,16.5-2.9,22.6c-2.9,6.1-5.5,1.9-7.1-6.8s-1-4.2-4.5,1.3s-3.2-5.2-2.9-10.6    c0.3-5.5-3.9-5.8-7.4-10.6s-3.5,2.9-2.6,7.7c1,4.8,7.4,11.9,11.6,16.5c4.2,4.5,3.9,4.5,3.5,8.1c-0.3,3.5-0.6,5.5-4.2,7.1    c-3.5,1.6-4.2-3.2-5.8-1.3c-1.6,1.9-1.9-2.6-2.3-4.8c-0.3-2.3-1.6-6.5-3.5-10s-1.9-1.9-2.6,1c-0.6,2.9-2.3,1-2.6-3.5    c-0.3-4.5-0.6,3.2-3.5,1.9s-0.3,2.6,1.9,4.8c2.3,2.3,8.4,12.6,8.4,12.6s20.7,23.2,22.9,41.6c2.3,18.4,3.5,17.4,16.8,37.8    c13.2,20.3,14.5,30,17.1,55.5s19,58.4,19,58.4c17.4,42.6,11.3,51,11.3,57.8s-2.3,7.4-3.9,2.3c-1.6-5.2-1.3-1.9,1.9,15.8    s-9.7,19.7-11.9,21.3c-2.3,1.6-9,3.5-11.6,1c-2.6-2.6-4.8-1.9-4.8,15.2c0,17.1,8.7,20,16.1,23.2c7.4,3.2,19.7,10,22.9,13.6    c3.2,3.5,10.6,8.1,20,10.6c9.4,2.6,19.7,1.6,25.2,1.3s21.9,1.6,27.4,2.9c5.5,1.3,5.2-0.3,1.9-1.6c-3.2-1.3-1.9-1.6,4.2-1.9    c6.1-0.3,11-3.5,11-3.5s20.3-15.2,23.6-18.4c3.2-3.2,7.1-1,9.4,0.3c2.3,1.3,4.5,0.6,8.7-1.9c4.2-2.6,3.2-4.2,2.9-7.1    c-0.3-2.9,2.6-7.4,10.6-10.6c8.1-3.2,53.6-8.7,57.4-9c3.9-0.3,19.4,1.6,25.2,1s7.1,2.6,7.1,6.1s23.6-2.6,28.4-5.2    c4.8-2.6,10-1.6,11,1.9s5.8,1.3,9.7,0s9.4-3.2,9.4-3.2c11.9-7.7,17.1-23.2,19.4-29.4c2.3-6.1,10.3-8.7,12.9-10.6    c2.6-1.9,28.1-9.7,42.9-19.7s20.7-8.4,30.3-8.1c9.7,0.3,27.4,2.6,42.3-2.3c14.8-4.8,51.3-21.9,57.8-22.9s36.5-4.8,42.6-4.5    s27.1,1.9,34.2-1c7.1-2.9,16.1,0.3,31.3,8.4c15.2,8.1,11.3,15.8,22.9,9.7c11.6-6.1,30,6.5,32.6,7.7c2.6,1.3,4.5,1,8.4-1.3    s8.1-0.3,11,1.9c2.9,2.3,5.5,8.4,4.8,12.3c-0.6,3.9,3.9,2.9,8.7,1.3c4.8-1.6,4.2,3.9,4.8,8.7s-1,4.8-3.9,2.3    c-2.9-2.6-1,1.9-1.6,4.8c-0.6,2.9-1.3,2.6,3.5,8.7c4.8,6.1,11.6,6.8,14.8,6.5c3.2-0.3,2.6-0.3,3.5,1.6c1,1.9,10.3,21,13.9,21.9    c3.5,1,6.8,7.1,8.4,10c1.6,2.9,0.3,6.1,1.6,7.7c1.3,1.6,1.9,3.9,3.2,11.3c1.3,7.4,2.9,7.7,0.6,7.4s-2.6-2.6-5.2-5.5    c-2.6-2.9-2.9-1.9-4.5,1.3c-1.6,3.2,0.6,3.9,4.5,5.2c3.9,1.3,7.7,3.9,11.6,8.4s3.9,4.8,6.1,3.9c2.3-1,4.8-1.6,7.4,1.9    c2.6,3.5,2.9,0.3,3.9-1.6c1-1.9,0.6-8.1-3.2-5.8c-3.9,2.3-2.9-1.3-2.9-1.3c2.3-7.1,22.6-29.7,26.1-34.5s15.5-7.7,21-10.3    s6.5-6.1,10.6-14.8c4.2-8.7,8.7-16.5,11.6-18.1c2.9-1.6,2.9-3.5,4.2-5.8c1.3-2.3,1.9-4.5,0-8.4c-1.9-3.9,1-2.6,1-2.6    s5.5,11.6,7.1,16.5c1.6,4.8,1,5.2-1.6,7.4c-2.6,2.3-4.2,1.3-2.3,8.7c1.9,7.4-2.3,11.9-6.5,18.7c-4.2,6.8-8.7,24.5-7.4,30.7    c1.3,6.1-2.3,16.1-3.9,18.1c-1.6,1.9-8.4,0.3-11.6,0.3c-3.2,0-4.2,0.3-5.2,2.9c-1,2.6,0,4.2-2.3,7.7c-2.3,3.5-2.6,5.5-0.3,4.2    c2.3-1.3,16.8-3.2,19-3.9c2.3-0.6,6.5-1.3,10,0s6.1-7.1,6.8-12.6c0.6-5.5,5.2-23.9,7.7-27.1c2.6-3.2,2.9-1.6,5.2,1.6    c2.3,3.2,5.5,12.3,11,16.8s1.9,7.4,1.3,17.1c-0.6,9.7-5.2,15.8-10.3,19c-5.2,3.2-2.9,4.5,0.6,5.2c3.5,0.6,7.4,1,9.4,0.3    c1.9-0.6,8.4-3.2,11.9-3.5s10.6-6.1,14.2-7.4c3.5-1.3,4.5-0.6,3.5,3.2c-1,3.9-3.5,1.9-5.2,3.2c-1.6,1.3-1.9,3.2-5.8,3.2    s10,13.9,18.1,20.3c8.1,6.5,17.7,23.6,14.5,32.3c-3.2,8.7-5.8,20.7,4.2,26.8c10,6.1,14.8,18.7,17.1,22.3    c2.3,3.5,12.6,7.1,18.4,7.1s3.2,1.9,7.7,3.5s11.6,4.8,11.6,9s6.8,3.9,11.3,1s10-2.9,12.9-1.3s7.4,3.5,13.9,1.6s10.6,4.2,15.5,6.8    c4.8,2.6,22.3,11.3,25.8,12.6c3.5,1.3,6.1,1.3,8.7-1s16.5-11.9,20.3-16.1c3.9-4.2,12.6-4.8,17.7-7.7c5.2-2.9,1.9-4.5-2.9-3.9    s-9,0.3-6.8-2.3c2.3-2.6,13.6-6.5,16.1-8.4c2.6-1.9,3.9-3.2,5.8-0.3c1.9,2.9,4.8,8.7,3.9,12.6c-1,3.9-5.2,7.7-8.4,7.7    c-3.2,0-2.6,1.6,0,4.5s8.4-1.9,12.9-4.8s5.5-3.2,9.7-5.2c4.2-1.9,2.3,7.4,0,10.3s-1.6,2.9,2.6,5.2c4.2,2.3,10.6,10.3,12.3,11    c1.6,0.6,2.9,1.9,7.4,0.3s8.1,3.2,11.3,10.3c3.2,7.1,1.9-3.9,1.6-6.8s-1-3.2-2.3-2.3c-1.3,1-2.9-1.6-3.5-4.5s12.9-4.5,16.5-4.5    c3.5,0,5.5,0.6,7.7-0.3c2.3-1,21.6-17.1,29-25.2s17.4-10,21.3-11s31-2.9,40-2.3s13.9-4.8,16.8-8.7c2.9-3.9,5.2-3.9,9.4-3.5    c4.2,0.3,3.9-2.6,5.2-5.5c1.3-2.9,1-8.1-1.3-9.7s-3.9-4.2-3.9-7.7s3.5-13.6,5.2-18.4c1.6-4.8,5.5-25.5,8.4-32.6s8.4-19,11.3-23.2    s3.5-5.5,6.5-5.8c2.9-0.3,2.3-2.3,1-3.9c-1.3-1.6,0-1.9,2.9-1c2.9,1,1-5.2-0.6-9.4s2.3-5.8,3.5-7.7s1-2.6-0.6-3.9    c-1.6-1.3-2.6-1.6-0.3-5.2c2.3-3.5,2.6-9,11.6-16.5c9-7.4,6.1-17.4,5.5-20s0.3-5.5,3.9-9c3.5-3.5,7.7-11.6,11.9-16.5    c4.2-4.8,8.1-8.1,13.2-9c5.2-1,4.2-2.3,1.6-4.2c-2.6-1.9,2.6-3.5,10.6-6.8c8.1-3.2,6.5-12.6,6.1-17.4c-0.3-4.8,2.9-7.4,2.9-7.4    c14.5-11,14.5-36.5,14.2-44.5c-0.3-8.1,3.2-25.5,5.8-30s6.5-23.9,6.8-30s5.8-19.7,9-27.1c3.2-7.4,0.6-15.8-0.6-22.3    C452.3-111,447.8-127.5,443.6-133z"
           id="path17"
           clip-path="url(#SVGID_2_)" /></g></g><g
       id="g19"><g
         id="g21"><line
           class="st2"
           x1="127.9"
           y1="301"
           x2="128.4"
           y2="298.5"
           id="line23" /><polyline
           class="st3"
           points="128.7,296.5 137.4,248.7 142.4,226 147.9,206.9   "
           id="polyline25" /><polyline
           class="st2"
           points="148.2,205.9 148.9,203.5 151.3,202.7   "
           id="polyline27" /><polyline
           class="st4"
           points="153.2,202 276.9,160.5 306.9,160.5 332.9,146.5 357.5,121   "
           id="polyline29" /><line
           class="st2"
           x1="358.2"
           y1="120.3"
           x2="359.9"
           y2="118.5"
           id="line31" /></g></g><line
       class="st5"
       x1="286.4"
       y1="187.5"
       x2="276.9"
       y2="160.5"
       id="line33" /><circle
       class="st6"
       cx="127.9"
       cy="301"
       r="6.5"
       id="circle35" /><circle
       class="st7"
       cx="137"
       cy="250.2"
       r="9.2"
       id="circle37" /><circle
       class="st6"
       cx="286.4"
       cy="187.5"
       r="6.5"
       id="circle39" /><circle
       class="st6"
       cx="359.9"
       cy="118.5"
       r="6.5"
       id="circle41" /><g
       id="g43"><path
         class="st6"
         d="M140.9,251.9c0,1.6-1.5,2.6-3.9,2.6s-3.9-1-3.9-2.6c0-1,0.6-1.7,1.6-2.1c-0.7-0.4-1.2-1-1.2-1.7   c0-1.4,1.3-2.3,3.4-2.3s3.5,0.9,3.5,2.3c0,0.8-0.4,1.4-1.2,1.7C140.3,250.2,140.9,250.9,140.9,251.9z M139,251.7   c0-0.7-0.7-1.1-2-1.1s-2,0.4-2,1.1c0,0.6,0.7,1.1,2,1.1C138.3,252.7,139,252.3,139,251.7z M135.4,248.2c0,0.5,0.5,0.9,1.6,0.9   s1.7-0.3,1.7-0.9c0-0.5-0.6-0.9-1.7-0.9S135.4,247.7,135.4,248.2z"
         id="path45" /></g><circle
       class="st7"
       cx="142.3"
       cy="226.4"
       r="9.2"
       id="circle47" /><g
       id="g49"><path
         class="st6"
         d="M145.9,222v1.5l-3.7,6.9h-2.1l3.5-6.6h-5V222H145.9z"
         id="path51" /></g><circle
       class="st7"
       cx="149"
       cy="203.5"
       r="9.2"
       id="circle53" /><g
       id="g55"><path
         class="st6"
         d="M153,205c0,1.6-1.4,2.8-3.5,2.8c-2.6,0-4.3-1.7-4.3-4.3c0-2.9,2-4.4,4.3-4.4c1.3,0,2.4,0.4,3.3,1.3l-0.9,1.4   c-0.5-0.5-1.2-0.9-2.3-0.9c-1.4,0-2.3,0.7-2.4,2.1c0.7-0.3,1.5-0.5,2.4-0.5C151.5,202.3,153,203.2,153,205z M151,205   c0-0.7-0.7-1.1-1.7-1.1c-0.8,0-1.5,0.2-2.1,0.6c0.3,1.1,1.2,1.6,2.3,1.6C150.4,206.1,151,205.7,151,205z"
         id="path57" /></g><g
       id="g59"><circle
         class="st7"
         cx="238.2"
         cy="174"
         r="9.2"
         id="circle61" /><g
         id="g63"><path
           class="st6"
           d="M239.2,176.5H234V175l5.3-5.3h1.7v5.2h1.3v1.7H241v1.5h-1.8V176.5z M239.2,174.9V172l-2.8,2.9H239.2z"
           id="path65" /></g></g><circle
       class="st7"
       cx="276.1"
       cy="160.5"
       r="9.2"
       id="circle67" /><g
       id="g69"><path
         class="st6"
         d="M279.8,162.1c0,1.4-1.2,2.6-3.7,2.6c-1.6,0-3-0.5-3.8-1.3l1-1.5c0.6,0.6,1.4,1.1,2.7,1.1c1.2,0,1.8-0.4,1.8-1   c0-0.5-0.4-0.8-1-0.8h-1.7v-1.7h1.2c0.8,0,1.1-0.3,1.1-0.8s-0.5-0.9-1.6-0.9c-1.2,0-1.7,0.4-2.1,1.2l-1.5-0.9c0.6-1.3,1.7-2,3.7-2   c2.3,0,3.5,1.2,3.5,2.5c0,0.8-0.4,1.4-1.1,1.7C279.2,160.5,279.8,161.2,279.8,162.1z"
         id="path71" /></g><circle
       class="st7"
       cx="306.9"
       cy="160.5"
       r="9.2"
       id="circle73" /><g
       id="g75"><path
         class="st6"
         d="M305.5,162.8h5v1.7h-6.7h-0.5c0-2.5,0.7-3.4,3.2-4.4c1.8-0.7,2.1-0.9,2.1-1.4s-0.4-1-1.5-1   c-1.4,0-1.9,0.6-2.2,1.3l-1.6-0.9c0.6-1.2,1.7-2.2,3.8-2.2c2.1,0,3.5,1.1,3.5,2.7c0,1.7-1.5,2.2-3.1,2.8   C306.4,162,305.8,162.4,305.5,162.8z"
         id="path77" /></g><circle
       class="st7"
       cx="333.1"
       cy="146.1"
       r="9.2"
       id="circle79" /><g
       id="g81"><path
         class="st6"
         d="M335.1,141.8v8.4h-1.9v-6.3l-2.1,0.8l-0.6-1.8l3.1-1.1L335.1,141.8L335.1,141.8z"
         id="path83" /></g><polygon
       class="st8"
       points="238.6,311.4 146,311.4 138,301 146,290.6 238.6,290.6 "
       id="polygon85" /><g
       id="g87"><path
         class="st9"
         d="M160.9,297.4v7h-1.6V300l-2,2.7h-0.1l-2-2.7v4.4h-1.6v-7h1.3l2.3,3.1l2.3-3.1H160.9z"
         id="path89" /><path
         class="st9"
         d="M169.3,302.9v1.5H164h-0.3v-7h1.6h4v1.5h-4v1.3h2.5v1.5h-2.5v1.3L169.3,302.9L169.3,302.9z"
         id="path91" /><path
         class="st9"
         d="M177.1,302.9v1.5h-4.9h-0.5v-7h1.6v5.5H177.1z"
         id="path93" /><path
         class="st9"
         d="M179.3,297.4h4c1.2,0,2,0.8,2,1.9c0,0.7-0.4,1.2-0.9,1.5c0.7,0.2,1.3,0.8,1.3,1.7c0,1.1-0.9,1.9-2,1.9h-4.4   V297.4z M182.8,300.2c0.5,0,0.8-0.3,0.8-0.8s-0.3-0.8-0.8-0.8h-1.9v1.5L182.8,300.2L182.8,300.2z M183.2,303.1   c0.5,0,0.8-0.3,0.8-0.8s-0.3-0.8-0.8-0.8h-2.3v1.5L183.2,303.1L183.2,303.1z"
         id="path95" /><path
         class="st9"
         d="M187.5,300.9c0-2,1.5-3.6,3.7-3.6c2.3,0,3.7,1.6,3.7,3.6s-1.5,3.6-3.7,3.6S187.5,302.9,187.5,300.9z    M193.4,300.9c0-1.2-0.8-2.1-2.1-2.1c-1.3,0-2.1,0.9-2.1,2.1s0.8,2.1,2.1,2.1C192.6,303,193.4,302.1,193.4,300.9z"
         id="path97" /><path
         class="st9"
         d="M197.2,301.6v-4.2h1.6v4.2c0,1,0.6,1.4,1.6,1.4s1.6-0.5,1.6-1.4v-4.2h1.6v4.2c0,2-1.4,2.9-3.2,2.9   C198.5,304.5,197.2,303.6,197.2,301.6z"
         id="path99" /><path
         class="st9"
         d="M212.7,304.3L212.7,304.3l-1.7,0.1l-1.6-2.4h-1.7v2.4h-1.6v-7h1.6h2.1c1.4,0,2.4,0.9,2.4,2.3   c0,1-0.5,1.7-1.3,2.1L212.7,304.3z M207.7,300.7h2c0.6,0,1-0.3,1-0.9s-0.4-0.9-1-0.9h-2V300.7z"
         id="path101" /><path
         class="st9"
         d="M221.2,297.4v7h-1.4l-3.5-4.3v4.3h-1.6v-7h1.4l3.5,4.3v-4.3H221.2z"
         id="path103" /><path
         class="st9"
         d="M229.6,302.9v1.5h-5.3H224v-7h1.6h4v1.5h-4v1.3h2.5v1.5h-2.5v1.3L229.6,302.9L229.6,302.9z"
         id="path105" /></g><polygon
       class="st8"
       points="386,197.9 304.7,197.9 296.7,187.5 304.7,177.1 386,177.1 "
       id="polygon107" /><g
       id="g109"><path
         class="st9"
         d="M308.9,187.4c0-2,1.4-3.6,3.6-3.6c1.5,0,2.6,0.7,3.1,1.8l-1.3,0.7c-0.3-0.6-0.9-1.1-1.8-1.1   c-1.3,0-2,0.9-2,2.1s0.8,2.1,2.1,2.1c0.9,0,1.5-0.4,1.8-1.1l1.3,0.8c-0.5,1.1-1.7,1.8-3.2,1.8C310.3,191,308.9,189.4,308.9,187.4z"
         id="path111" /><path
         class="st9"
         d="M324.6,190.8L324.6,190.8l-1.7,0.1l-0.5-1.2h-3.3l-0.5,1.2h-1.7v-0.1l3-6.9h1.7L324.6,190.8z M321.8,188.3   l-1.1-2.6l-1.1,2.6H321.8z"
         id="path113" /><path
         class="st9"
         d="M333.1,183.9v7h-1.4l-3.5-4.3v4.3h-1.6v-7h1.4l3.5,4.3v-4.3H333.1z"
         id="path115" /><path
         class="st9"
         d="M335.7,183.9h4c1.2,0,2,0.8,2,1.9c0,0.7-0.4,1.2-0.9,1.5c0.7,0.2,1.3,0.8,1.3,1.7c0,1.1-0.9,1.9-2,1.9h-4.4   L335.7,183.9L335.7,183.9z M339.2,186.7c0.5,0,0.8-0.3,0.8-0.8s-0.3-0.8-0.8-0.8h-1.9v1.5h1.9V186.7z M339.6,189.6   c0.5,0,0.8-0.3,0.8-0.8s-0.3-0.8-0.8-0.8h-2.3v1.5h2.3V189.6z"
         id="path117" /><path
         class="st9"
         d="M350,189.4v1.5h-5.3h-0.4v-7h1.6h4v1.5h-4v1.3h2.5v1.5h-2.5v1.3h4.1V189.4z"
         id="path119" /><path
         class="st9"
         d="M358.9,190.8L358.9,190.8l-1.7,0.1l-1.6-2.4h-1.7v2.4h-1.6v-7h1.6h2.1c1.4,0,2.4,0.9,2.4,2.3   c0,1-0.5,1.7-1.3,2.1L358.9,190.8z M353.9,187.2h2c0.6,0,1-0.3,1-0.9c0-0.6-0.4-0.9-1-0.9h-2V187.2z"
         id="path121" /><path
         class="st9"
         d="M367.5,190.8L367.5,190.8l-1.7,0.1l-1.6-2.4h-1.7v2.4h-1.6v-7h1.6h2.1c1.4,0,2.4,0.9,2.4,2.3   c0,1-0.5,1.7-1.3,2.1L367.5,190.8z M362.6,187.2h2c0.6,0,1-0.3,1-0.9c0-0.6-0.4-0.9-1-0.9h-2V187.2z"
         id="path123" /><path
         class="st9"
         d="M376.6,190.8L376.6,190.8l-1.7,0.1l-0.5-1.2h-3.3l-0.5,1.2h-1.7v-0.1l3-6.9h1.7L376.6,190.8z M373.8,188.3   l-1.1-2.6l-1.1,2.6H373.8z"
         id="path125" /></g><polygon
       class="st8"
       points="279.9,108.1 341,108.1 349,118.5 341,128.9 279.9,128.9 "
       id="polygon127" /><g
       id="g129"><path
         class="st9"
         d="M288.6,121.1l0.7-1.3c0.7,0.6,1.5,0.9,2.6,0.9c0.9,0,1.5-0.3,1.5-0.8c0-0.4-0.3-0.5-1.8-0.7s-2.9-0.4-2.9-2   c0-1.4,1.2-2.3,3-2.3c1.6,0,2.6,0.7,3,1.6l-1.3,0.7c-0.2-0.6-0.8-0.9-1.8-0.9s-1.4,0.3-1.4,0.8c0,0.4,0.3,0.5,1.7,0.7   c1.5,0.2,3,0.4,3,2c0,1.5-1.4,2.3-3.2,2.3C290.6,122,289.5,121.7,288.6,121.1z"
         id="path131" /><path
         class="st9"
         d="M303.2,115l-2.7,4.1v2.8h-1.6v-2.8l-2.7-4.1v-0.1h1.7l1.7,2.8l1.7-2.8L303.2,115L303.2,115z"
         id="path133" /><path
         class="st9"
         d="M311.8,118.4c0,2-1.6,3.5-3.6,3.5h-2.9h-0.1v-7h1.6h1.3C310.2,114.9,311.8,116.4,311.8,118.4z M310.2,118.4   c0-1.2-0.8-2-2-2h-1.3v4h1.3C309.3,120.4,310.2,119.6,310.2,118.4z"
         id="path135" /><path
         class="st9"
         d="M320.6,114.9v7h-1.4l-3.5-4.3v4.3h-1.6v-7h1.4l3.5,4.3v-4.3H320.6z"
         id="path137" /><path
         class="st9"
         d="M328.9,120.4v1.5h-5.3h-0.3v-7h1.6h4v1.5h-4v1.3h2.5v1.5h-2.5v1.3h4V120.4z"
         id="path139" /><path
         class="st9"
         d="M337.6,115l-2.7,4.1v2.8h-1.6v-2.8l-2.7-4.1v-0.1h1.7l1.7,2.8l1.7-2.8L337.6,115L337.6,115z"
         id="path141" /></g><circle
       class="st10"
       cx="230.7"
       cy="230.4"
       r="226.4"
       id="circle143" /><g
       id="g145"><path
         class="st11"
         d="M468.4,342.5c-1.2-1.4-0.1-3.6-0.6-5.2c-0.4-1.2-1.8-2.5-2.7-3.5c-1.2-1.4-2.9-1.9-4-3.2   c-0.3-0.4-1.8-3.7-1.6-3.8c-0.3,0.4-1.8,0.3-1.7-0.3c0.1,0.4,0.1,0.8,0,1.2c-2.2-0.4-3-6.1-4.7-7.3c-1.4-1-4.3-1.5-5.2-2.3   c-1.5-1.2-2-1.8-2.6-3.7c-0.6-2.1-1.1-2.4-1.9-4c-0.7-1.4-0.3-3.7-1.1-4.9c-1.3-2-2.7-1.3-4.2-0.9c-0.4,0.1-2.5-7.2-2.6-7.4   c-0.7-1-1.6-2.3-2.1-3.4s-1.6,2.9-1.5,2.6c-0.2,0.5-0.7,1.9-0.8,2.3c-0.1,0.6,1.1,0.5,0.8,1c-1.4,3.4,1.5,18.1-6.3,14.3   c-2.4-1.2-4.9-2.3-7.3-3.5c-1-0.5-3.5-1-4.2-2.3c-0.4-0.8-0.1-4.1,0.9-4.2c-1.7,0.1,0.5-2.4,0.9-1.3c-0.3-0.9,1.5-2,1.4-3   c0-0.3-1.8-0.3-1.2-1c-0.6,0.9-0.4,0.8-0.6,1.3c-0.3,0.6-1.2-0.2-0.8-0.6c-0.1,0.1-0.8,0.5-1,0.2c0.2,0.4,0.7-1.4,0.4-1.2   c-2.2,1.8-2.5,1.4-5.1,0.7c-1.9-0.5-4.2-0.9-5.8-1.8c0,0.2,0.1,0.4,0.1,0.6c-0.2-0.4-0.5-0.5-0.9-0.4c-0.7,0.2,2.2,1.5,1.8,0.7   c0.8,1.7,0.8,1.6-0.1,2.2c-1,0.7-2.7-0.3-3.3-0.1c-0.7,0.2-0.7,1.5-0.9,1.6c-0.3,0.1-0.6-0.5-0.9-0.5c-1.2,0.1-0.7,3.3-1.9,3.3   c0.1,0-1.2,2-1.2,2.1c-0.1,1,1.4,1.8,1.4,2c0,0-1,1-0.6,1.1c-1.1,0-0.3-1-1.4,0.2c0.8-0.9-1.9-1.1-2.2-1c0.1,0-0.9,1.7-0.5,1.7   c-0.2-0.1-0.4-0.1-0.5,0.2c0.8-1.7-1-4.2-2.9-4.2c-1.3,0-0.2,0.2-1.3,0.4c0,0-1.3,1.1-0.8-0.1c0.1-0.1-0.9,0.5-0.9,0.5   c0.1-0.3-0.1-0.4-0.4-0.5c0.2,0,0.3,1.4-0.2,1.7c-0.3,0.1-1.1-0.5-1-0.6c-1.1,1.1-0.7,0.9-0.6,2.3c-0.1-1.2-1.6,1.7-0.7,1.4   c-0.8,0.3-1.1-0.9-1.8,0.1c-0.5,0.8,0.4,1.3,0.4,1.5c-0.3,0.9,0.1,0.4,0.1,1.1c0,0.8-2.6-0.5-2.7-0.5c-1.1-0.3,0.8,3.3,0.8,2.2   c0,0.1-0.2,0.8-0.3,0.8c-0.1-0.2-0.3-0.4-0.6-0.4c-0.1,0.1,0.2,2-0.1,1.9c-1-0.3-1.3-3.2-2-3.6c-0.3-0.2-3.2,3.8-1.4,5   c0.3,0.2-4.7,5.7-5.5,6.1c-2.3,1-4.8,2.1-7.1,2.7c-2,0.6-2.7,0.2-4.3,1.2c-1,0.6-3,2.1-3.9,3c-0.5,0.6-1.5,2.6-2.1,2.7   c-0.1,0-0.7-2.1-0.7-2.1c-0.8,1.6-0.1,2.3-0.2,3.6c-0.1,1-0.9,2.5-0.8,3.4c0.2,1.7,1.4,2.6,1.9,4.1c0-0.1,0.9,3.6,0.2,2.8   c-0.1-0.3-0.3-0.7-0.4-1c0,0.4-0.1,0.6-0.4,0.4c0,0.1-0.9-2.1-0.9-1.4c-0.1,1.4,1.7,1.5,1.1,2.9c-0.2,0.3-1.4-1-1.1-1.3   c-0.1,0.1-0.5,0.6-0.3,0c-0.1,0.1-0.2,0.2-0.3,0.3c1.3,2.1,11.6,18.7,9,20.2c-0.1-0.1-0.2-0.2-0.3-0.3c0.6,3-1.5,2.3-1.6,3.1   c-0.4,2.4,2.7,4,4.8,4.4c3.4,0.7,4.9-0.3,7.3-2.3c2.2-1.7,5.2-2.3,8.6-2.5c0.4,0,2.8,0.2,3.4,0c1.7-0.8,1.8-2.3,3.1-3.5   c2.1-2,4.7-2,7.1-2.8c2.3-0.7,4.3-1.9,6.6-2.6c4.1-1.2,7.9-0.2,11.6,0.6c1.1,0.2,2.2,0.5,2.9,1c1.1,1-0.6,0.8,0,1.4   c0.1,0.1,5.2,5.2,4.2,5.2c-0.2-0.4-0.4-0.5-0.8-0.3c-0.1,0.2,2.3,1.8,2.6,1.4c0.2-0.3,0.2-2.2,1.4-3.5c0.8-0.9,1.6-1.1,2.3-2.1   c0.1-0.1,1.2-2.8,1-2.8c1.3-0.6,0.1,4,0.2,3.9c-0.4,2.1-0.5,4-2,5c0.8-0.5,1.9-0.1,2.5-0.8c0.2-0.2,0.3-3.1,0.7-2.9   c2.6,1.3,0,3.7,0.5,4.5c0.4,0.7,3.3-1,3.2-0.7c0,0.2-0.8,0.6-0.8,0.6c2.1-0.2,2.6,4.8,3.3,5.8c0.8,1.3,2.7,2.4,4.2,2.7   c1.3,0.3,3.3,0.6,4.8,0.7c1.7,0.2,1.3,0.5,2.9-0.2c0.1-0.1,2.1-1.8,2.2-1.7c0,0-1.1,0.1-0.9-0.1c2.1-2.8,1.6,1.3,1.4,1.1   c0.2,0.2,1.6-0.9,1.7-0.9c-1.2,0.7,2.9,2.5,2.9,2.6c-0.1-1-0.3-0.2-0.6-1c0.2,0.6,5.1-3.4,5.4-3.6c1.5-0.6,4.2,0,5.2-1.6   c0.5-0.8-0.1-4.2,0.3-5.6c0.4-1.3,1-2.6,1.4-3.6c0.4-1.1,0.6-2.9,1.2-4c1-1.8,2.2-2.6,3.1-4c1.2-2,1.2-5.1,1.4-7.4   C468.9,348.1,470.5,344.9,468.4,342.5C468,342.1,468.7,342.9,468.4,342.5z"
         id="path147" /><path
         class="st11"
         d="M457.3,388.5c0.2-3.1-3.8-0.1-4,0.1c-1.9,1-4.9-2-6.2-1.2c-2.4,1.5,2.8,4.7,2.4,6.1c0,0.1-0.9-0.8-0.9-0.8   c-0.1,2.6,2.4,2.7,3.3,3.7c-0.1-0.2-0.4,0.3-0.5,0.5c-0.2,0.8,4.6-0.6,2.7-1.5c0.2,0.2,0.3,0.3,0.6,0.4c0.1-0.2,0.1-1.7,0.3-1.5   c0.3,0.2,1.7,1.3,1.7,1.3s-0.3-3.9,0.5-4.4l0.5,0.6C457.2,391.1,457.3,389.2,457.3,388.5z"
         id="path149" /></g><g
       id="g151"><g
         id="g153"><defs
           id="defs155"><circle
             id="SVGID_3_"
             cx="455.1"
             cy="370.5"
             r="17.1" /></defs><clipPath
           id="SVGID_4_"><use
             xlink:href="#SVGID_3_"
             style="overflow:visible;"
             id="use159" /></clipPath><path
           class="st12"
           d="M468.4,342.5c-1.2-1.4-0.1-3.6-0.6-5.2c-0.4-1.2-1.8-2.5-2.7-3.5c-1.2-1.4-2.9-1.9-4-3.2    c-0.3-0.4-1.8-3.7-1.6-3.8c-0.3,0.4-1.8,0.3-1.7-0.3c0.1,0.4,0.1,0.8,0,1.2c-2.2-0.4-3-6.1-4.7-7.3c-1.4-1-4.3-1.5-5.2-2.3    c-1.5-1.2-2-1.8-2.6-3.7c-0.6-2.1-1.1-2.4-1.9-4c-0.7-1.4-0.3-3.7-1.1-4.9c-1.3-2-2.7-1.3-4.2-0.9c-0.4,0.1-2.5-7.2-2.6-7.4    c-0.7-1-1.6-2.3-2.1-3.4s-1.6,2.9-1.5,2.6c-0.2,0.5-0.7,1.9-0.8,2.3c-0.1,0.6,1.1,0.5,0.8,1c-1.4,3.4,1.5,18.1-6.3,14.3    c-2.4-1.2-4.9-2.3-7.3-3.5c-1-0.5-3.5-1-4.2-2.3c-0.4-0.8-0.1-4.1,0.9-4.2c-1.7,0.1,0.5-2.4,0.9-1.3c-0.3-0.9,1.5-2,1.4-3    c0-0.3-1.8-0.3-1.2-1c-0.6,0.9-0.4,0.8-0.6,1.3c-0.3,0.6-1.2-0.2-0.8-0.6c-0.1,0.1-0.8,0.5-1,0.2c0.2,0.4,0.7-1.4,0.4-1.2    c-2.2,1.8-2.5,1.4-5.1,0.7c-1.9-0.5-4.2-0.9-5.8-1.8c0,0.2,0.1,0.4,0.1,0.6c-0.2-0.4-0.5-0.5-0.9-0.4c-0.7,0.2,2.2,1.5,1.8,0.7    c0.8,1.7,0.8,1.6-0.1,2.2c-1,0.7-2.7-0.3-3.3-0.1c-0.7,0.2-0.7,1.5-0.9,1.6c-0.3,0.1-0.6-0.5-0.9-0.5c-1.2,0.1-0.7,3.3-1.9,3.3    c0.1,0-1.2,2-1.2,2.1c-0.1,1,1.4,1.8,1.4,2c0,0-1,1-0.6,1.1c-1.1,0-0.3-1-1.4,0.2c0.8-0.9-1.9-1.1-2.2-1c0.1,0-0.9,1.7-0.5,1.7    c-0.2-0.1-0.4-0.1-0.5,0.2c0.8-1.7-1-4.2-2.9-4.2c-1.3,0-0.2,0.2-1.3,0.4c0,0-1.3,1.1-0.8-0.1c0.1-0.1-0.9,0.5-0.9,0.5    c0.1-0.3-0.1-0.4-0.4-0.5c0.2,0,0.3,1.4-0.2,1.7c-0.3,0.1-1.1-0.5-1-0.6c-1.1,1.1-0.7,0.9-0.6,2.3c-0.1-1.2-1.6,1.7-0.7,1.4    c-0.8,0.3-1.1-0.9-1.8,0.1c-0.5,0.8,0.4,1.3,0.4,1.5c-0.3,0.9,0.1,0.4,0.1,1.1c0,0.8-2.6-0.5-2.7-0.5c-1.1-0.3,0.8,3.3,0.8,2.2    c0,0.1-0.2,0.8-0.3,0.8c-0.1-0.2-0.3-0.4-0.6-0.4c-0.1,0.1,0.2,2-0.1,1.9c-1-0.3-1.3-3.2-2-3.6c-0.3-0.2-3.2,3.8-1.4,5    c0.3,0.2-4.7,5.7-5.5,6.1c-2.3,1-4.8,2.1-7.1,2.7c-2,0.6-2.7,0.2-4.3,1.2c-1,0.6-3,2.1-3.9,3c-0.5,0.6-1.5,2.6-2.1,2.7    c-0.1,0-0.7-2.1-0.7-2.1c-0.8,1.6-0.1,2.3-0.2,3.6c-0.1,1-0.9,2.5-0.8,3.4c0.2,1.7,1.4,2.6,1.9,4.1c0-0.1,0.9,3.6,0.2,2.8    c-0.1-0.3-0.3-0.7-0.4-1c0,0.4-0.1,0.6-0.4,0.4c0,0.1-0.9-2.1-0.9-1.4c-0.1,1.4,1.7,1.5,1.1,2.9c-0.2,0.3-1.4-1-1.1-1.3    c-0.1,0.1-0.5,0.6-0.3,0c-0.1,0.1-0.2,0.2-0.3,0.3c1.3,2.1,11.6,18.7,9,20.2c-0.1-0.1-0.2-0.2-0.3-0.3c0.6,3-1.5,2.3-1.6,3.1    c-0.4,2.4,2.7,4,4.8,4.4c3.4,0.7,4.9-0.3,7.3-2.3c2.2-1.7,5.2-2.3,8.6-2.5c0.4,0,2.8,0.2,3.4,0c1.7-0.8,1.8-2.3,3.1-3.5    c2.1-2,4.7-2,7.1-2.8c2.3-0.7,4.3-1.9,6.6-2.6c4.1-1.2,7.9-0.2,11.6,0.6c1.1,0.2,2.2,0.5,2.9,1c1.1,1-0.6,0.8,0,1.4    c0.1,0.1,5.2,5.2,4.2,5.2c-0.2-0.4-0.4-0.5-0.8-0.3c-0.1,0.2,2.3,1.8,2.6,1.4c0.2-0.3,0.2-2.2,1.4-3.5c0.8-0.9,1.6-1.1,2.3-2.1    c0.1-0.1,1.2-2.8,1-2.8c1.3-0.6,0.1,4,0.2,3.9c-0.4,2.1-0.5,4-2,5c0.8-0.5,1.9-0.1,2.5-0.8c0.2-0.2,0.3-3.1,0.7-2.9    c2.6,1.3,0,3.7,0.5,4.5c0.4,0.7,3.3-1,3.2-0.7c0,0.2-0.8,0.6-0.8,0.6c2.1-0.2,2.6,4.8,3.3,5.8c0.8,1.3,2.7,2.4,4.2,2.7    c1.3,0.3,3.3,0.6,4.8,0.7c1.7,0.2,1.3,0.5,2.9-0.2c0.1-0.1,2.1-1.8,2.2-1.7c0,0-1.1,0.1-0.9-0.1c2.1-2.8,1.6,1.3,1.4,1.1    c0.2,0.2,1.6-0.9,1.7-0.9c-1.2,0.7,2.9,2.5,2.9,2.6c-0.1-1-0.3-0.2-0.6-1c0.2,0.6,5.1-3.4,5.4-3.6c1.5-0.6,4.2,0,5.2-1.6    c0.5-0.8-0.1-4.2,0.3-5.6c0.4-1.3,1-2.6,1.4-3.6c0.4-1.1,0.6-2.9,1.2-4c1-1.8,2.2-2.6,3.1-4c1.2-2,1.2-5.1,1.4-7.4    C468.9,348.1,470.5,344.9,468.4,342.5C468,342.1,468.7,342.9,468.4,342.5z"
           id="path161"
           clip-path="url(#SVGID_4_)" /></g></g><circle
       class="st13"
       cx="455.1"
       cy="370.5"
       r="17.1"
       id="circle163" /><g
       id="g165"><g
         id="g167"><g
           id="g169"><line
             class="st5"
             x1="163.5"
             y1="103.3"
             x2="225.2"
             y2="103.3"
             id="line171" /><g
             id="g173"><rect
               x="162.5"
               y="96.8"
               class="st6"
               width="2"
               height="13"
               id="rect175" /></g><g
             id="g177"><rect
               x="224.2"
               y="96.8"
               class="st6"
               width="2"
               height="13"
               id="rect179" /></g></g></g><g
         id="g181"><path
           class="st6"
           d="M182.4,90.2c0,2.9-2,4.4-4.3,4.4c-1.3,0-2.4-0.4-3.3-1.3l0.9-1.4c0.5,0.5,1.2,0.9,2.3,0.9    c1.4,0,2.2-0.7,2.4-2.1c-0.7,0.3-1.5,0.5-2.4,0.5c-1.9,0-3.4-0.9-3.4-2.6c0-1.6,1.3-2.8,3.5-2.8C180.7,85.9,182.4,87.6,182.4,90.2    z M178.2,89.8c0.8,0,1.4-0.2,2.1-0.6c-0.3-1.1-1.2-1.6-2.2-1.6c-0.9,0-1.6,0.4-1.6,1.1C176.5,89.4,177.2,89.8,178.2,89.8z"
           id="path183" /><path
           class="st6"
           d="M187.7,86.1v8.4h-1.9v-6.3l-2.1,0.8l-0.6-1.8l3.1-1.1L187.7,86.1L187.7,86.1z"
           id="path185" /><path
           class="st6"
           d="M196.3,86.1v1.5l-3.7,6.9h-2.1l3.5-6.6h-5v-1.8L196.3,86.1L196.3,86.1z"
           id="path187" /><path
           class="st6"
           d="M203.6,94.4L203.6,94.4l-1.9,0.1l-1.4-2.2l-1,1.1v1h-1.8V86h1.8v5.1l2.2-2.6h2.1v0.1l-2.1,2.4L203.6,94.4z"
           id="path189" /><path
           class="st6"
           d="M214,90.8v3.7h-1.8v-3.6c0-0.5-0.3-0.9-0.9-0.9c-0.5,0-0.8,0.2-1.1,0.6v3.9h-1.8v-3.6c0-0.4-0.3-0.9-0.9-0.9    c-0.5,0-0.9,0.3-1.2,0.7v3.8h-1.8v-5.9h1.8v0.7c0.4-0.5,1-0.8,1.7-0.8s1.3,0.3,1.7,0.8c0.6-0.5,1.2-0.8,1.9-0.8    C213,88.4,214,89.4,214,90.8z"
           id="path191" /></g></g><g
       id="g193"><path
         class="st8"
         d="M150.8,284.2c0.1-0.1,0.2-0.4,0.1-0.6l-2.2-5.7c2.2-2.4,2.7-3.8,2.1-4.3c-0.6-0.6-2-0.1-4.3,2.1l-5.8-2.2   c-0.2-0.1-0.5,0-0.6,0.1l-0.7,0.7c-0.1,0.1-0.1,0.4,0,0.5l4.5,3.6c-0.9,1-1.6,2.1-2.2,3l-1.7-0.3c-0.2,0-0.5,0.1-0.6,0.2l-0.3,0.3   c-0.1,0.1-0.1,0.4,0.1,0.5l1.7,1c-0.2,0.4-0.2,0.6-0.1,0.7s0.3,0,0.7-0.1l1,1.7c0.1,0.2,0.3,0.2,0.5,0.1l0.3-0.3   c0.1-0.1,0.2-0.4,0.2-0.6l-0.3-1.7c0.9-0.6,2-1.4,3-2.2l3.6,4.5c0.1,0.2,0.4,0.2,0.5,0L150.8,284.2z"
         id="path195" /></g><g
       id="g197"><path
         class="st8"
         d="M359.2,105.4c0.1-0.1,0.2-0.4,0.1-0.6l-2.2-5.7c2.2-2.4,2.7-3.8,2.1-4.3c-0.6-0.6-2-0.1-4.3,2.1l-5.8-2.2   c-0.2-0.1-0.5,0-0.6,0.1l-0.7,0.7c-0.1,0.1-0.1,0.4,0,0.5l4.5,3.6c-0.9,1-1.6,2.1-2.2,3l-1.7-0.3c-0.2,0-0.5,0.1-0.6,0.2l-0.3,0.3   c-0.1,0.1-0.1,0.4,0.1,0.5l1.7,1c-0.2,0.4-0.2,0.6-0.1,0.7c0.1,0.1,0.3,0,0.7-0.1l1,1.7c0.1,0.2,0.3,0.2,0.5,0.1l0.3-0.3   c0.1-0.1,0.2-0.4,0.2-0.6l-0.3-1.7c0.9-0.6,2-1.4,3-2.2l3.6,4.5c0.1,0.2,0.4,0.2,0.5,0L359.2,105.4z"
         id="path199" /></g><g
       id="g201"><path
         class="st8"
         d="M298.8,208.3c0.1-0.1,0.2-0.4,0.1-0.6l-2.2-5.7c2.2-2.4,2.7-3.8,2.1-4.3c-0.6-0.6-2-0.1-4.3,2.1l-5.8-2.2   c-0.2-0.1-0.5,0-0.6,0.1l-0.7,0.7c-0.1,0.1-0.1,0.4,0,0.5l4.5,3.6c-0.9,1-1.6,2.1-2.2,3l-1.7-0.3c-0.2,0-0.5,0.1-0.6,0.2l-0.3,0.3   c-0.1,0.1-0.1,0.4,0.1,0.5l1.7,1c-0.2,0.4-0.2,0.6-0.1,0.7s0.3,0,0.7-0.1l1,1.7c0.1,0.2,0.3,0.2,0.5,0.1l0.3-0.3   c0.1-0.1,0.2-0.4,0.2-0.6l-0.3-1.7c0.9-0.6,2-1.4,3-2.2l3.6,4.5c0.1,0.2,0.4,0.2,0.5,0L298.8,208.3z"
         id="path203" /></g><circle
       class="st14"
       cx="205.9"
       cy="157.8"
       r="6.5"
       id="circle205" /><circle
       class="st14"
       cx="194.4"
       cy="222.3"
       r="6.5"
       id="circle207" /><line
       class="st15"
       x1="205.9"
       y1="157.8"
       x2="194.4"
       y2="222.3"
       id="line209" /><g
       id="g211"><circle
         class="st7"
         cx="200.9"
         cy="186.3"
         r="9.2"
         id="circle213" /><g
         id="g215"><path
           class="st6"
           d="M197.2,189.3l1-1.5c0.7,0.6,1.5,1,2.6,1c1.2,0,1.9-0.4,1.9-1.1c0-0.7-0.6-1.1-1.9-1.1c-0.8,0-1.3,0.1-1.7,0.3    l-1.3-0.8V182h6.5v1.7h-4.6v1.4c0.6-0.1,1.1-0.2,1.6-0.2c1.9,0,3.4,1,3.4,2.7s-1.3,2.9-3.8,2.9    C199.2,190.5,198.1,190.1,197.2,189.3z"
           id="path217" /></g></g><g
       id="g219"><path
         class="st14"
         d="M97.3,153.6L97.3,153.6l1.7-0.1l1.3,4.6l1.5-4.4h1.2l1.5,4.4l1.3-4.6h1.7v0.1l-2.2,6.9h-1.4l-1.5-4.3   l-1.5,4.3h-1.4L97.3,153.6z"
         id="path221" /><path
         class="st14"
         d="M115.9,160.4L115.9,160.4l-1.7,0.1l-0.5-1.2h-3.3l-0.5,1.2h-1.6v-0.1l3-6.9h1.7L115.9,160.4z M113.2,157.9   l-1.1-2.6l-1.1,2.6H113.2z"
         id="path223" /><path
         class="st14"
         d="M124.2,156.5v1.3v1.5c-0.7,0.8-1.8,1.3-3.1,1.3c-2.5,0-3.9-1.6-3.9-3.6s1.4-3.6,3.7-3.6   c1.5,0,2.6,0.7,3.1,1.8l-1.4,0.7c-0.3-0.6-0.8-1-1.8-1c-1.3,0-2.1,0.9-2.1,2.2c0,1.2,0.8,2.2,2.3,2.2c0.6,0,1.1-0.1,1.6-0.5V158   h-1.7v-1.3h3.3V156.5z"
         id="path225" /><path
         class="st14"
         d="M133.2,156.5v1.3v1.5c-0.7,0.8-1.8,1.3-3.1,1.3c-2.5,0-3.9-1.6-3.9-3.6s1.4-3.6,3.7-3.6   c1.5,0,2.6,0.7,3.1,1.8l-1.4,0.7c-0.3-0.6-0.8-1-1.8-1c-1.3,0-2.1,0.9-2.1,2.2c0,1.2,0.8,2.2,2.3,2.2c0.6,0,1.1-0.1,1.6-0.5V158   h-1.7v-1.3h3.3V156.5z"
         id="path227" /><path
         class="st14"
         d="M142.3,160.4L142.3,160.4l-1.7,0.1l-0.5-1.2h-3.3l-0.5,1.2h-1.7v-0.1l3-6.9h1.7L142.3,160.4z M139.6,157.9   l-1.1-2.6l-1.1,2.6H139.6z"
         id="path229" /><path
         class="st14"
         d="M147.6,153.6L147.6,153.6l1.7-0.1l1.3,4.6l1.5-4.4h1.2l1.5,4.4l1.3-4.6h1.7v0.1l-2.2,6.9h-1.4l-1.5-4.3   l-1.5,4.3h-1.4L147.6,153.6z"
         id="path231" /><path
         class="st14"
         d="M166.2,160.4L166.2,160.4l-1.7,0.1l-0.5-1.2h-3.3l-0.5,1.2h-1.7v-0.1l3-6.9h1.7L166.2,160.4z M163.4,157.9   l-1.1-2.6l-1.1,2.6H163.4z"
         id="path233" /><path
         class="st14"
         d="M174.5,156.5v1.3v1.5c-0.7,0.8-1.8,1.3-3.1,1.3c-2.5,0-3.9-1.6-3.9-3.6s1.4-3.6,3.7-3.6   c1.5,0,2.6,0.7,3.1,1.8l-1.4,0.7c-0.3-0.6-0.8-1-1.8-1c-1.3,0-2.1,0.9-2.1,2.2c0,1.2,0.8,2.2,2.3,2.2c0.6,0,1.1-0.1,1.6-0.5V158   h-1.6v-1.3h3.2V156.5z"
         id="path235" /><path
         class="st14"
         d="M183.5,156.5v1.3v1.5c-0.7,0.8-1.8,1.3-3.1,1.3c-2.5,0-3.9-1.6-3.9-3.6s1.4-3.6,3.7-3.6   c1.5,0,2.6,0.7,3.1,1.8l-1.4,0.7c-0.3-0.6-0.8-1-1.8-1c-1.3,0-2.1,0.9-2.1,2.2c0,1.2,0.8,2.2,2.3,2.2c0.6,0,1.1-0.1,1.6-0.5V158   h-1.7v-1.3h3.3V156.5z"
         id="path237" /><path
         class="st14"
         d="M192.6,160.4L192.6,160.4l-1.7,0.1l-0.5-1.2h-3.3l-0.5,1.2h-1.7v-0.1l3-6.9h1.7L192.6,160.4z M189.8,157.9   l-1.1-2.6l-1.1,2.6H189.8z"
         id="path239" /></g><g
       id="g241"><path
         class="st14"
         d="M216.5,226.3L216.5,226.3l-1.7,0.1l-0.5-1.2H211l-0.5,1.2h-1.7v-0.1l3-6.9h1.7L216.5,226.3z M213.7,223.8   l-1.1-2.6l-1.1,2.6H213.7z"
         id="path243" /><path
         class="st14"
         d="M224,224.9v1.5h-4.9h-0.5v-7h1.6v5.5H224z"
         id="path245" /><path
         class="st14"
         d="M226.2,219.4h4c1.2,0,2,0.8,2,1.9c0,0.7-0.4,1.2-0.9,1.5c0.7,0.2,1.3,0.8,1.3,1.7c0,1.1-0.9,1.9-2,1.9h-4.4   V219.4z M229.7,222.2c0.5,0,0.8-0.3,0.8-0.8s-0.3-0.8-0.8-0.8h-1.9v1.5L229.7,222.2L229.7,222.2z M230.1,225c0.5,0,0.8-0.3,0.8-0.8   s-0.3-0.8-0.8-0.8h-2.3v1.5L230.1,225L230.1,225z"
         id="path247" /><path
         class="st14"
         d="M234.5,223.6v-4.2h1.6v4.2c0,1,0.6,1.4,1.6,1.4s1.6-0.5,1.6-1.4v-4.2h1.6v4.2c0,2-1.4,2.9-3.2,2.9   C235.8,226.5,234.5,225.5,234.5,223.6z"
         id="path249" /><path
         class="st14"
         d="M250,226.3L250,226.3l-1.7,0.1l-1.6-2.4H245v2.4h-1.6v-7h1.6h2.1c1.4,0,2.4,0.9,2.4,2.3c0,1-0.5,1.7-1.3,2.1   L250,226.3z M245,222.6h2c0.6,0,1-0.3,1-0.9s-0.4-0.9-1-0.9h-2V222.6z"
         id="path251" /><path
         class="st14"
         d="M258,219.4l-2.7,4.1v2.8h-1.6v-2.8l-2.7-4.1v-0.1h1.7l1.7,2.8l1.7-2.8L258,219.4L258,219.4z"
         id="path253" /></g></g></svg>